<svg width="32" height="32" viewBox="0 0 32 32" xmlns="http://www.w3.org/2000/svg">
<path d="M28.625 6.5625H11.75C11.1969 6.5625 10.75 7.00937 10.75 7.5625V14.9375H3.375C2.82187 14.9375 2.375 15.3844 2.375 15.9375V24.4375C2.375 24.9906 2.82187 25.4375 3.375 25.4375H20.25C20.8031 25.4375 21.25 24.9906 21.25 24.4375V17.0625H28.625C29.1781 17.0625 29.625 16.6156 29.625 16.0625V7.5625C29.625 7.00937 29.1781 6.5625 28.625 6.5625ZM19.125 23.3125H12.875V17.0625H19.125V23.3125ZM27.5 14.9375H21.25V8.6875H27.5V14.9375Z"/>
</svg>
