<svg width="32" height="32" viewBox="0 0 22 26" xmlns="http://www.w3.org/2000/svg">
    <path d="M21 11.5H5.375V4.5C5.375 3.53437 6.15938 2.75 7.125 2.75H14.875C15.8406 2.75 16.625 3.53437 16.625 4.5V12.625C16.625 12.7625 16.7375 12.875 16.875 12.875H18.625C18.7625 12.875 18.875 12.7625 18.875 12.625V4.5C18.875 2.29063 17.0844 0.5 14.875 0.5H7.125C4.91563 0.5 3.125 2.29063 3.125 4.5V11.5H1C0.446875 11.5 0 11.9469 0 12.5V24.5C0 25.0531 0.446875 25.5 1 25.5H21C21.5531 25.5 22 25.0531 22 24.5V12.5C22 11.9469 21.5531 11.5 21 11.5ZM11.875 18.9062V20.5625C11.875 20.7 11.7625 20.8125 11.625 20.8125H10.375C10.2375 20.8125 10.125 20.7 10.125 20.5625V18.9062C9.86704 18.721 9.6745 18.4588 9.57509 18.1572C9.47568 17.8556 9.47454 17.5302 9.57182 17.2279C9.66909 16.9256 9.85978 16.662 10.1164 16.475C10.3731 16.288 10.6824 16.1872 11 16.1872C11.3176 16.1872 11.6269 16.288 11.8836 16.475C12.1402 16.662 12.3309 16.9256 12.4282 17.2279C12.5255 17.5302 12.5243 17.8556 12.4249 18.1572C12.3255 18.4588 12.133 18.721 11.875 18.9062Z" />
</svg>
