<svg width="32" height="32" viewBox="0 0 28 26" fill="none" xmlns="http://www.w3.org/2000/svg">
<path d="M26.9 9.05C26.1972 7.38659 25.1784 5.87533 23.9 4.6C22.6247 3.32159 21.1134 2.30276 19.45 1.6C17.7219 0.86875 15.8906 0.5 14 0.5C12.1094 0.5 10.2781 0.86875 8.55 1.6C6.88659 2.30276 5.37533 3.32159 4.1 4.6C2.82159 5.87533 1.80276 7.38659 1.1 9.05C0.36875 10.7781 0 12.6094 0 14.5C0 18.6469 1.82187 22.5531 4.99687 25.2219L5.05 25.2656C5.23125 25.4156 5.45937 25.5 5.69375 25.5H22.3094C22.5438 25.5 22.7719 25.4156 22.9531 25.2656L23.0063 25.2219C26.1781 22.5531 28 18.6469 28 14.5C28 12.6094 27.6281 10.7781 26.9 9.05ZM13.0625 4.25C13.0625 4.1125 13.175 4 13.3125 4H14.6875C14.825 4 14.9375 4.1125 14.9375 4.25V6.75C14.9375 6.8875 14.825 7 14.6875 7H13.3125C13.175 7 13.0625 6.8875 13.0625 6.75V4.25ZM6.4375 15.1875C6.4375 15.325 6.325 15.4375 6.1875 15.4375H3.6875C3.55 15.4375 3.4375 15.325 3.4375 15.1875V13.8125C3.4375 13.675 3.55 13.5625 3.6875 13.5625H6.1875C6.325 13.5625 6.4375 13.675 6.4375 13.8125V15.1875ZM9.27188 8.79688L8.3 9.76875C8.25301 9.81528 8.18956 9.84138 8.12344 9.84138C8.05731 9.84138 7.99386 9.81528 7.94687 9.76875L6.17813 8C6.1316 7.95301 6.1055 7.88956 6.1055 7.82344C6.1055 7.75731 6.1316 7.69386 6.17813 7.64688L7.15 6.675C7.24687 6.57812 7.40625 6.57812 7.50313 6.675L9.27188 8.44375C9.36875 8.54063 9.36875 8.7 9.27188 8.79688ZM18.3687 11.4094L15.7281 14.05C15.8844 14.6344 15.7344 15.2812 15.275 15.7406C15.1126 15.9033 14.9197 16.0324 14.7074 16.1205C14.495 16.2086 14.2674 16.2539 14.0375 16.2539C13.8076 16.2539 13.58 16.2086 13.3676 16.1205C13.1553 16.0324 12.9624 15.9033 12.8 15.7406C12.6373 15.5782 12.5082 15.3853 12.4201 15.173C12.3321 14.9606 12.2867 14.733 12.2867 14.5031C12.2867 14.2732 12.3321 14.0456 12.4201 13.8333C12.5082 13.6209 12.6373 13.428 12.8 13.2656C13.017 13.048 13.2876 12.8915 13.5844 12.8119C13.8813 12.7323 14.1939 12.7325 14.4906 12.8125L17.1313 10.1719C17.2281 10.075 17.3875 10.075 17.4844 10.1719L18.3687 11.0562C18.4656 11.1531 18.4656 11.3094 18.3687 11.4094ZM19.7125 9.77188L18.7406 8.8C18.6941 8.75301 18.668 8.68956 18.668 8.62344C18.668 8.55731 18.6941 8.49386 18.7406 8.44687L20.5094 6.67813C20.6062 6.58125 20.7656 6.58125 20.8625 6.67813L21.8344 7.65C21.9312 7.74687 21.9312 7.90625 21.8344 8.00313L20.0656 9.77188C20.0186 9.8184 19.9552 9.8445 19.8891 9.8445C19.8229 9.8445 19.7595 9.8184 19.7125 9.77188ZM24.4375 15.1875C24.4375 15.325 24.325 15.4375 24.1875 15.4375H21.6875C21.55 15.4375 21.4375 15.325 21.4375 15.1875V13.8125C21.4375 13.675 21.55 13.5625 21.6875 13.5625H24.1875C24.325 13.5625 24.4375 13.675 24.4375 13.8125V15.1875Z"/>
</svg>
