<svg width="32" height="32" viewBox="0 0 32 32" fill="none" xmlns="http://www.w3.org/2000/svg">
<path d="M27 4.5H17.5C17.225 4.5 17 4.725 17 5V14.5C17 14.775 17.225 15 17.5 15H27C27.275 15 27.5 14.775 27.5 14.5V5C27.5 4.725 27.275 4.5 27 4.5ZM27 17H17.5C17.225 17 17 17.225 17 17.5V27C17 27.275 17.225 27.5 17.5 27.5H27C27.275 27.5 27.5 27.275 27.5 27V17.5C27.5 17.225 27.275 17 27 17ZM14.5 4.5H5C4.725 4.5 4.5 4.725 4.5 5V14.5C4.5 14.775 4.725 15 5 15H14.5C14.775 15 15 14.775 15 14.5V5C15 4.725 14.775 4.5 14.5 4.5ZM14.5 17H5C4.725 17 4.5 17.225 4.5 17.5V27C4.5 27.275 4.725 27.5 5 27.5H14.5C14.775 27.5 15 27.275 15 27V17.5C15 17.225 14.775 17 14.5 17Z" fill="#06043E"/>
</svg>
