<svg width="32" height="32" viewBox="0 0 26 26" xmlns="http://www.w3.org/2000/svg">
<path d="M24.5 0.5H1.5C0.946875 0.5 0.5 0.946875 0.5 1.5V24.5C0.5 25.0531 0.946875 25.5 1.5 25.5H24.5C25.0531 25.5 25.5 25.0531 25.5 24.5V1.5C25.5 0.946875 25.0531 0.5 24.5 0.5ZM13.0344 13.1906L7.03438 18.2219C6.87188 18.3594 6.625 18.2437 6.625 18.0312V16.0719C6.625 16 6.65937 15.9281 6.71562 15.8813L10.1469 13L6.71562 10.1187C6.6869 10.0961 6.66379 10.0671 6.64807 10.034C6.63235 10.001 6.62446 9.96472 6.625 9.92813V7.96875C6.625 7.75625 6.87188 7.64062 7.03438 7.77812L13.0344 12.8062C13.1562 12.9062 13.1562 13.0906 13.0344 13.1906ZM19.375 18.0312C19.375 18.1688 19.2687 18.2812 19.1406 18.2812H13.3594C13.2312 18.2812 13.125 18.1688 13.125 18.0312V16.5312C13.125 16.3938 13.2312 16.2812 13.3594 16.2812H19.1406C19.2687 16.2812 19.375 16.3938 19.375 16.5312V18.0312Z" />
</svg>
