<?xml version="1.0" encoding="UTF-8" standalone="no"?>
<!-- Created with Inkscape (http://www.inkscape.org/) -->

<svg
   width="15.60255mm"
   height="15.599189mm"
   viewBox="0 0 15.602549 15.599189"
   version="1.1"
   id="svg5"
   inkscape:version="1.1.1 (3bf5ae0d25, 2021-09-20)"
   sodipodi:docname="architect.svg"
   xmlns:inkscape="http://www.inkscape.org/namespaces/inkscape"
   xmlns:sodipodi="http://sodipodi.sourceforge.net/DTD/sodipodi-0.dtd"
   xmlns="http://www.w3.org/2000/svg"
   xmlns:svg="http://www.w3.org/2000/svg">
  <sodipodi:namedview
     id="namedview7"
     pagecolor="#ffffff"
     bordercolor="#666666"
     borderopacity="1.0"
     inkscape:pageshadow="2"
     inkscape:pageopacity="0.0"
     inkscape:pagecheckerboard="0"
     inkscape:document-units="mm"
     showgrid="false"
     inkscape:zoom="4.0220149"
     inkscape:cx="-23.122739"
     inkscape:cy="30.333055"
     inkscape:window-width="1920"
     inkscape:window-height="1001"
     inkscape:window-x="0"
     inkscape:window-y="27"
     inkscape:window-maximized="1"
     inkscape:current-layer="layer1-3" />
  <defs
     id="defs2" />
  <g
     inkscape:label="Livello 1"
     inkscape:groupmode="layer"
     id="layer1"
     transform="translate(-32.636619,-24.589115)">
    <rect
       style="opacity:1;fill:#00a8f0;fill-opacity:0;fill-rule:nonzero;stroke:none;stroke-width:1.518;stroke-linecap:round;stroke-miterlimit:4;stroke-dasharray:none;stroke-opacity:1;paint-order:markers stroke fill"
       id="rect6830"
       width="12.02911"
       height="13.567823"
       x="63.303852"
       y="40.018337"
       ry="3.2224925" />
    <rect
       style="opacity:1;fill:#00a8f0;fill-opacity:0;fill-rule:nonzero;stroke:none;stroke-width:1.518;stroke-linecap:round;stroke-miterlimit:4;stroke-dasharray:none;stroke-opacity:1;paint-order:markers stroke fill"
       id="rect6832"
       width="9.4467583"
       height="10.422672"
       x="65.8862"
       y="43.163486"
       ry="3.2224925" />
    <g
       inkscape:label="Livello 1"
       id="layer1-3"
       transform="translate(94.370561,11.111645)">
      <rect
         style="opacity:1;fill:#00a8f0;fill-opacity:0;fill-rule:nonzero;stroke:none;stroke-width:1.518;stroke-linecap:round;stroke-miterlimit:4;stroke-dasharray:none;stroke-opacity:1;paint-order:markers stroke fill"
         id="rect6830-6"
         width="12.02911"
         height="13.567823"
         x="63.303852"
         y="40.018337"
         ry="3.2224925" />
      <rect
         style="opacity:1;fill:#00a8f0;fill-opacity:0;fill-rule:nonzero;stroke:none;stroke-width:1.518;stroke-linecap:round;stroke-miterlimit:4;stroke-dasharray:none;stroke-opacity:1;paint-order:markers stroke fill"
         id="rect6832-2"
         width="9.4467583"
         height="10.422672"
         x="65.8862"
         y="43.163486"
         ry="3.2224925" />
      <path
         style="fill:#19174b;fill-opacity:1;stroke-width:0.035;stroke-miterlimit:4;stroke-dasharray:none"
         d="m -54.89385,29.051624 c -0.129473,-0.05357 -0.150362,-0.147503 -0.150362,-0.676105 v -0.505886 l -0.130665,-0.03629 c -0.07186,-0.01995 -0.150175,-0.03638 -0.174021,-0.03648 -0.02384,-1.05e-4 -0.2512,-0.0686 -0.505233,-0.152221 -0.467724,-0.153953 -0.903348,-0.355509 -1.315545,-0.608682 l -0.226482,-0.139107 -0.369362,0.362799 c -0.532017,0.522562 -0.463966,0.537902 -1.293404,-0.291538 -0.829673,-0.829673 -0.814376,-0.761568 -0.290509,-1.293403 l 0.363826,-0.369362 -0.122525,-0.191641 c -0.314264,-0.491532 -0.610571,-1.17989 -0.757569,-1.759914 -0.09543,-0.376549 -0.195996,-1.065626 -0.195996,-1.342955 v -0.172433 h 1.109997 1.109998 l 0.02306,0.305446 c 0.117921,1.562081 1.185309,2.913995 2.688004,3.404524 1.818126,0.593497 3.81962,-0.240865 4.679679,-1.950816 0.247257,-0.491591 0.423667,-1.16175 0.424091,-1.611069 l 1.42e-4,-0.148085 h 1.120139 1.12014 l -0.02374,0.339725 c -0.07548,1.080122 -0.3983,2.088143 -0.940109,2.935577 l -0.122526,0.191641 0.363827,0.369362 c 0.523248,0.531206 0.538784,0.4623 -0.291414,1.292498 -0.830198,0.830198 -0.761291,0.814661 -1.292499,0.291415 l -0.369362,-0.363827 -0.191639,0.12254 c -0.562721,0.359822 -1.323589,0.665532 -2.062035,0.828509 l -0.09336,0.02061 -0.01116,0.53888 c -0.0096,0.4612 -0.02013,0.547834 -0.07332,0.601004 -0.05615,0.05611 -0.152308,0.06284 -0.993044,0.06946 -0.511984,0.0041 -0.965134,-0.0069 -1.007001,-0.02417 z m -6.282844,-8.373766 c -0.17102,-0.0539 -0.462684,-0.355922 -0.515123,-0.53341 -0.09653,-0.326705 -0.02848,-0.587137 0.217772,-0.833385 0.218662,-0.218662 0.351634,-0.260147 0.833852,-0.260147 0.26774,0 0.374938,-0.01218 0.383486,-0.04355 0.05122,-0.188008 0.266609,-0.733972 0.406136,-1.029467 0.436479,-0.924388 1.087406,-1.784046 1.809814,-2.390159 0.30533,-0.256177 0.831264,-0.631095 0.852603,-0.607788 0.0059,0.0065 0.08899,0.712641 0.184684,1.569367 0.191713,1.716421 0.192605,1.720162 0.4455,1.867144 0.355661,0.206709 0.816884,-0.06427 0.816884,-0.479945 0,-0.08982 -0.09501,-1.000845 -0.21112,-2.024489 -0.116116,-1.023645 -0.203316,-1.912278 -0.193777,-1.974744 0.02495,-0.163419 0.149736,-0.3202 0.314341,-0.394955 0.133243,-0.06052 0.260836,-0.06486 1.902425,-0.06486 1.64159,0 1.769182,0.0044 1.902425,0.06486 0.164707,0.0748 0.289487,0.231673 0.314159,0.394955 0.0095,0.06246 -0.07776,0.948663 -0.193777,1.969329 -0.116017,1.020664 -0.210937,1.931685 -0.210937,2.024488 0,0.421092 0.458618,0.693585 0.816884,0.485361 0.252895,-0.146982 0.253786,-0.150723 0.4455,-1.867144 0.09569,-0.856726 0.178798,-1.56294 0.184684,-1.569367 0.0059,-0.0065 0.129757,0.06865 0.275275,0.16685 1.171826,0.79074 2.112302,2.01127 2.632429,3.416308 0.08158,0.220386 0.153819,0.420301 0.160524,0.444256 0.0088,0.03137 0.116244,0.04355 0.383811,0.04355 0.441598,0 0.593026,0.03934 0.785411,0.204008 0.47452,0.406173 0.373803,1.115765 -0.196646,1.385444 l -0.174217,0.08237 -7.125525,-0.0032 c -5.089475,-0.0023 -7.16037,-0.0142 -7.247477,-0.04166 z"
         id="path3394" />
    </g>
  </g>
</svg>
