<svg xmlns="http://www.w3.org/2000/svg" viewBox="0 0 372.12 424.54"><path d="M372.1,114v-.1a16.16,16.16,0,0,0-5.5-12c-.2-.1-.3-.3-.5-.4s-.1-.1-.2-.1a7.61,7.61,0,0,0-1.9-1.2l-169.8-98c-.4-.2-.8-.5-1.3-.7a16.09,16.09,0,0,0-8-1.5,15.79,15.79,0,0,0-4.2.9,15.5,15.5,0,0,0-2.9,1.4L7.9,100.44A15.67,15.67,0,0,0,0,114v196.5a15.91,15.91,0,0,0,8.3,13.9l169.8,98a3.13,3.13,0,0,0,1,.5h.1l1.5.6c.1,0,.1.1.2.1a8.33,8.33,0,0,0,1.5.4.37.37,0,0,1,.3.1l1.5.3h.2a12.85,12.85,0,0,0,3.2,0h.2a8,8,0,0,0,1.5-.3.37.37,0,0,0,.3-.1c.5-.1,1-.3,1.5-.4.1,0,.1-.1.2-.1l1.5-.6h.1a9.29,9.29,0,0,1,1-.5l169.8-98a15.91,15.91,0,0,0,8.3-13.9v-196C372.2,114.34,372.1,114.24,372.1,114Zm-305.2-6.5,115.6-66.8a7.51,7.51,0,0,1,7.4,0l115.6,66.8a7.41,7.41,0,0,1,0,12.8l-115.6,66.8a7.51,7.51,0,0,1-7.4,0L66.9,120.34A7.34,7.34,0,0,1,66.9,107.54Zm99.3,253.7a7.42,7.42,0,0,1-11.1,6.4L39.7,301a7.39,7.39,0,0,1-3.7-6.4V161.34a7.42,7.42,0,0,1,11.1-6.4l115.4,66.6a7.39,7.39,0,0,1,3.7,6.4Zm170.2-66.6a7.39,7.39,0,0,1-3.7,6.4l-115.4,66.6a7.42,7.42,0,0,1-11.1-6.4V228a7.39,7.39,0,0,1,3.7-6.4L325.3,155a7.42,7.42,0,0,1,11.1,6.4Z"/></svg>