<svg width="32" height="32" viewBox="0 0 32 32" fill="none" xmlns="http://www.w3.org/2000/svg">
<path d="M29.5792 15.7818L16.7073 2.91929C16.6146 2.82642 16.5046 2.75275 16.3834 2.70248C16.2622 2.65222 16.1323 2.62634 16.0011 2.62634C15.8699 2.62634 15.74 2.65222 15.6188 2.70248C15.4976 2.75275 15.3875 2.82642 15.2948 2.91929L2.42295 15.7818C2.04795 16.1568 1.83545 16.6662 1.83545 17.1974C1.83545 18.3005 2.73232 19.1974 3.83545 19.1974H5.1917V28.3755C5.1917 28.9287 5.63857 29.3755 6.1917 29.3755H14.0011V22.3755H17.5011V29.3755H25.8104C26.3636 29.3755 26.8104 28.9287 26.8104 28.3755V19.1974H28.1667C28.6979 19.1974 29.2073 18.988 29.5823 18.6099C30.3604 17.8287 30.3604 16.563 29.5792 15.7818Z" fill="#06043E"/>
</svg>
