<?xml version="1.0" encoding="UTF-8" standalone="no"?>
<!-- Created with Inkscape (http://www.inkscape.org/) -->

<svg
   width="12.151883mm"
   height="12.152963mm"
   viewBox="0 0 12.151883 12.152963"
   version="1.1"
   id="svg5"
   inkscape:version="1.1.1 (3bf5ae0d25, 2021-09-20)"
   sodipodi:docname="home.svg"
   xmlns:inkscape="http://www.inkscape.org/namespaces/inkscape"
   xmlns:sodipodi="http://sodipodi.sourceforge.net/DTD/sodipodi-0.dtd"
   xmlns="http://www.w3.org/2000/svg"
   xmlns:svg="http://www.w3.org/2000/svg">
  <sodipodi:namedview
     id="namedview7"
     pagecolor="#ffffff"
     bordercolor="#666666"
     borderopacity="1.0"
     inkscape:pageshadow="2"
     inkscape:pageopacity="0.0"
     inkscape:pagecheckerboard="0"
     inkscape:document-units="mm"
     showgrid="false"
     inkscape:zoom="6.4114101"
     inkscape:cx="13.72553"
     inkscape:cy="18.56066"
     inkscape:window-width="1920"
     inkscape:window-height="1001"
     inkscape:window-x="0"
     inkscape:window-y="27"
     inkscape:window-maximized="1"
     inkscape:current-layer="layer1-3" />
  <defs
     id="defs2" />
  <g
     inkscape:label="Livello 1"
     inkscape:groupmode="layer"
     id="layer1"
     transform="translate(-34.364685,-26.387969)">
    <g
       inkscape:label="Livello 1"
       id="layer1-3"
       transform="translate(94.370561,11.111645)">
      <path
         style="fill:#19174b;fill-opacity:1;stroke-width:0.0237543"
         d="m -57.726054,27.384615 c -0.24336,-0.06422 -0.393249,-0.151833 -0.588878,-0.344177 -0.184805,-0.181709 -0.314945,-0.413871 -0.363515,-0.648471 -0.0176,-0.08522 -0.02609,-0.73935 -0.02609,-2.025045 v -1.899161 h -0.161283 c -0.568868,0 -1.032547,-0.388849 -1.125911,-0.944224 -0.03698,-0.219963 -10e-4,-0.453331 0.10266,-0.671052 0.06809,-0.142627 0.273265,-0.353955 2.689797,-2.770492 2.416535,-2.416528 2.627861,-2.621705 2.770489,-2.689787 0.322047,-0.153742 0.678705,-0.154503 0.994766,-0.0023 0.145859,0.07033 0.34768,0.266204 2.773395,2.691919 2.416531,2.416528 2.621706,2.627863 2.689787,2.770484 0.103946,0.21772 0.139636,0.451088 0.10266,0.671049 -0.09331,0.555026 -0.557069,0.944232 -1.125116,0.944232 h -0.160512 l -0.0066,1.965654 -0.0067,1.965652 -0.06351,0.16341 c -0.168379,0.433372 -0.515221,0.736811 -0.952996,0.833745 -0.14578,0.03225 -0.332429,0.03689 -1.256255,0.03111 -1.053322,-0.0065 -1.08695,-0.0083 -1.150609,-0.05578 -0.03609,-0.02696 -0.0876,-0.07847 -0.114554,-0.114553 -0.04805,-0.0643 -0.04928,-0.09622 -0.06085,-1.651338 l -0.01184,-1.585773 -0.07212,-0.116877 c -0.08108,-0.13139 -0.262418,-0.255572 -0.408475,-0.279709 -0.11644,-0.01921 -1.226533,-0.01921 -1.34297,0 -0.146056,0.02418 -0.3274,0.148319 -0.408478,0.279709 l -0.07211,0.116877 -0.01188,1.585768 c -0.01164,1.555118 -0.01279,1.587036 -0.06085,1.651339 -0.02696,0.03612 -0.07847,0.08764 -0.114554,0.114553 -0.06377,0.04767 -0.09555,0.04907 -1.174362,0.05393 -1.028778,0.0046 -1.121317,0.0014 -1.282417,-0.04082 z"
         id="path8857" />
    </g>
  </g>
</svg>
