<?xml version="1.0" encoding="UTF-8" standalone="no"?>
<!-- Created with Inkscape (http://www.inkscape.org/) -->

<svg
   width="11.60428mm"
   height="14.125455mm"
   viewBox="0 0 11.604279 14.125455"
   version="1.1"
   id="svg5"
   inkscape:version="1.1.1 (3bf5ae0d25, 2021-09-20)"
   sodipodi:docname="security.svg"
   xmlns:inkscape="http://www.inkscape.org/namespaces/inkscape"
   xmlns:sodipodi="http://sodipodi.sourceforge.net/DTD/sodipodi-0.dtd"
   xmlns="http://www.w3.org/2000/svg"
   xmlns:svg="http://www.w3.org/2000/svg">
  <sodipodi:namedview
     id="namedview7"
     pagecolor="#ffffff"
     bordercolor="#666666"
     borderopacity="1.0"
     inkscape:pageshadow="2"
     inkscape:pageopacity="0.0"
     inkscape:pagecheckerboard="0"
     inkscape:document-units="mm"
     showgrid="false"
     inkscape:zoom="6.0027108"
     inkscape:cx="1.9990968"
     inkscape:cy="19.324603"
     inkscape:window-width="1920"
     inkscape:window-height="1001"
     inkscape:window-x="0"
     inkscape:window-y="27"
     inkscape:window-maximized="1"
     inkscape:current-layer="layer1" />
  <defs
     id="defs2" />
  <g
     inkscape:label="Livello 1"
     inkscape:groupmode="layer"
     id="layer1"
     transform="translate(-34.635753,-25.325982)">
    <path
       style="fill:#19174b;fill-opacity:1;stroke-width:0.0276028"
       d="m 40.222602,39.398242 c -1.826707,-0.736589 -3.353424,-2.096956 -4.348472,-3.874631 -0.577084,-1.030984 -0.947085,-2.134051 -1.129623,-3.367693 -0.07389,-0.499431 -0.118619,-1.56542 -0.106896,-2.547724 l 0.0092,-0.768781 0.07307,-0.110379 c 0.06404,-0.09674 0.413517,-0.312913 2.824858,-1.747482 2.936323,-1.746894 2.869726,-1.711818 3.078929,-1.622124 0.05272,0.02256 1.30686,0.762131 2.787069,1.643426 1.881367,1.120138 2.712057,1.629165 2.760296,1.691429 l 0.069,0.08907 -3.28e-4,1.45166 c -2.78e-4,1.238085 -0.0074,1.502406 -0.04909,1.796687 -0.182776,1.29285 -0.559478,2.436412 -1.150288,3.491911 -0.988878,1.766647 -2.524769,3.142578 -4.300892,3.852961 -0.234394,0.09374 -0.328309,0.09769 -0.516832,0.02171 z m -0.598787,-4.9965 c 0.121367,-0.02948 0.224117,-0.125662 1.628482,-1.525058 0.824427,-0.82151 1.535548,-1.548572 1.58027,-1.615692 0.165426,-0.248279 0.08157,-0.550626 -0.19194,-0.691983 -0.08501,-0.04391 -0.306393,-0.04418 -0.391971,-3.46e-4 -0.03645,0.01857 -0.671791,0.637852 -1.411902,1.376063 l -1.345659,1.342172 -0.393329,-0.391607 c -0.216331,-0.215391 -0.428296,-0.40465 -0.471034,-0.420586 -0.18944,-0.07061 -0.428496,0.0032 -0.546029,0.16801 -0.08234,0.115637 -0.102466,0.341099 -0.04182,0.468823 0.02443,0.05159 0.303011,0.352037 0.618983,0.667745 0.424748,0.424388 0.602831,0.584101 0.683194,0.612728 0.134689,0.04794 0.12628,0.04765 0.282801,0.0097 z"
       id="path9249" />
  </g>
</svg>
