<svg width="32" height="32" viewBox="0 0 32 32" xmlns="http://www.w3.org/2000/svg">
<path d="M21.5656 11.7927C21.75 11.7927 21.9344 11.7989 22.1156 11.8083C21.3531 7.78643 17.1688 4.71143 12.1188 4.71143C6.53125 4.71143 2 8.48018 2 13.1302C2 15.6646 3.3625 17.9489 5.49688 19.4927C5.58491 19.5548 5.6567 19.6372 5.7062 19.733C5.75569 19.8287 5.78143 19.9349 5.78125 20.0427C5.78125 20.1177 5.76563 20.1864 5.74688 20.2583C5.575 20.8927 5.30313 21.9083 5.29063 21.9552C5.26875 22.0364 5.2375 22.1177 5.2375 22.2021C5.2375 22.3864 5.3875 22.5396 5.575 22.5396C5.64688 22.5396 5.70625 22.5114 5.76875 22.4771L7.98438 21.1989C8.15 21.1021 8.32813 21.0427 8.52188 21.0427C8.62188 21.0427 8.72188 21.0583 8.81875 21.0864C9.85313 21.3833 10.9688 21.5489 12.1219 21.5489C12.3094 21.5489 12.4938 21.5458 12.6781 21.5364C12.4563 20.8802 12.3375 20.1896 12.3375 19.4739C12.3375 15.2302 16.4688 11.7927 21.5656 11.7927ZM15.4938 9.08955C16.2375 9.08955 16.8438 9.69268 16.8438 10.4364C16.8438 11.1802 16.2406 11.7833 15.4938 11.7833C14.75 11.7833 14.1438 11.1802 14.1438 10.4364C14.1438 9.69268 14.75 9.08955 15.4938 9.08955ZM8.74688 11.7833C8.00313 11.7833 7.39688 11.1802 7.39688 10.4364C7.39688 9.69268 8 9.08955 8.74688 9.08955C9.49375 9.08955 10.0969 9.69268 10.0969 10.4364C10.0969 11.1802 9.49063 11.7833 8.74688 11.7833ZM27.0844 24.7708C28.8625 23.4833 29.9969 21.5833 29.9969 19.4677C29.9969 15.5927 26.2219 12.4521 21.5625 12.4521C16.9063 12.4521 13.1281 15.5927 13.1281 19.4677C13.1281 23.3427 16.9031 26.4833 21.5625 26.4833C22.525 26.4833 23.4563 26.3458 24.3156 26.0989C24.3969 26.0739 24.4781 26.0614 24.5625 26.0614C24.725 26.0614 24.8719 26.1114 25.0094 26.1896L26.8563 27.2521C26.9094 27.2833 26.9594 27.3052 27.0188 27.3052C27.0558 27.3055 27.0925 27.2984 27.1269 27.2845C27.1612 27.2706 27.1924 27.25 27.2188 27.2239C27.2448 27.1976 27.2654 27.1664 27.2793 27.132C27.2933 27.0977 27.3003 27.061 27.3 27.0239C27.3 26.9552 27.2719 26.8864 27.2563 26.8177C27.2469 26.7802 27.0188 25.9333 26.875 25.4021C26.8594 25.3427 26.8469 25.2833 26.8469 25.2239C26.85 25.0396 26.9438 24.8739 27.0844 24.7708ZM18.7563 18.3489C18.1344 18.3489 17.6313 17.8458 17.6313 17.2271C17.6313 16.6083 18.1344 16.1052 18.7563 16.1052C19.3781 16.1052 19.8813 16.6083 19.8813 17.2271C19.8813 17.8458 19.375 18.3489 18.7563 18.3489ZM24.3781 18.3489C23.7563 18.3489 23.2531 17.8458 23.2531 17.2271C23.2531 16.6083 23.7563 16.1052 24.3781 16.1052C25 16.1052 25.5031 16.6083 25.5031 17.2271C25.5016 17.5247 25.3825 17.8096 25.1718 18.0198C24.9611 18.23 24.6758 18.3483 24.3781 18.3489Z"/>
</svg>
