<svg width="16" height="16" viewBox="0 0 16 16" xmlns="http://www.w3.org/2000/svg">
<path d="M11.3128 3.4107V2.20289C11.3128 2.0982 11.1925 2.04039 11.1112 2.10445L4.06745 7.60601C4.00761 7.65256 3.95918 7.71215 3.92587 7.78025C3.89256 7.84836 3.87524 7.92317 3.87524 7.99898C3.87524 8.0748 3.89256 8.14961 3.92587 8.21771C3.95918 8.28582 4.00761 8.34541 4.06745 8.39195L11.1112 13.8935C11.194 13.9576 11.3128 13.8998 11.3128 13.7951V12.5873C11.3128 12.5107 11.2768 12.4373 11.2175 12.3904L5.59245 7.99976L11.2175 3.60758C11.2768 3.5607 11.3128 3.48726 11.3128 3.4107Z"/>
</svg>
