<svg width="32" height="32" viewBox="0 0 56 56" fill="none" xmlns="http://www.w3.org/2000/svg">
<path d="M27.6423 4.72095C26.6328 4.72095 26.5235 4.86448 26.3403 6.42753C26.1921 7.69135 25.4609 12.3409 25.2216 13.5422L25.0949 14.1787H24.3197C22.9509 14.1787 21.7167 14.8348 21.7167 15.5625C21.7167 16.1564 22.4074 16.6853 23.3704 16.8288L23.8952 16.9069L22.6703 18.4834L22.7323 20.3627C22.7664 21.3965 22.8319 22.4466 22.8777 22.6967L22.9611 23.1512L21.8842 23.0759C20.2786 22.9634 20.3174 22.8885 20.3408 26.0454C20.351 27.4215 20.3945 28.8597 20.4374 29.2413L20.4959 29.7602L14.6746 32.8306L17.6974 41.8531L48.2031 42.903C51.1005 44.3417 52.7644 46.0294 51.4752 42.4919C50.7719 40.5953 49.4097 36.9074 47.5718 31.9245C46.9778 30.3138 46.3604 28.8292 46.1996 28.6252C45.8742 28.212 44.8521 27.6381 44.4415 27.6381C44.295 27.6381 44.1422 27.5518 44.1017 27.4463C44.0612 27.3408 44.028 26.3905 44.028 25.3346C44.028 24.2785 43.9853 23.3962 43.9331 23.3741C43.8425 23.3356 42.2193 21.4338 41.6219 20.6661C41.3484 20.3148 41.2966 20.2999 40.1066 20.233L38.8747 20.1638L37.7714 19.4323C37.1645 19.0299 36.5167 18.6628 36.3318 18.6164C36.0114 18.536 35.9982 18.5045 36.0521 17.9438C36.0897 17.5527 36.3629 16.8334 36.8673 15.7976C39.4927 10.4048 39.6924 9.94752 39.611 9.51428C39.4948 8.8946 39.0127 8.49738 37.4401 7.72469C33.7049 5.88927 29.8955 4.72158 27.6428 4.72158L27.6423 4.72095ZM35.5739 20.7006L36.0606 20.7786C36.3282 20.8213 36.5904 20.8831 36.6434 20.9159C36.6964 20.9487 36.7079 21.2461 36.6688 21.5769C36.6004 22.1539 36.6178 22.2008 37.0991 22.7229C37.5438 23.2054 37.6009 23.3341 37.6009 23.8568C37.6009 25.0007 38.1328 26.1023 39.3095 27.3952C40.2662 28.4466 40.3376 28.729 39.6472 28.729C39.1977 28.729 38.8596 28.9016 38.6909 29.2169C38.5475 29.4848 38.6599 29.7741 39.1247 30.3331C39.276 30.515 39.5374 30.9548 39.7057 31.3105C40.1874 32.3288 41.36 35.887 41.36 36.3308C41.36 36.5514 41.3071 36.732 41.2425 36.732C41.1779 36.732 40.9109 36.442 40.649 36.0876C39.9724 35.1717 38.6479 33.9963 37.7242 33.4921C35.8146 32.4495 34.6901 31.6176 34.3803 31.0182C34.2036 30.6765 34.2068 30.6714 35.5951 29.0659C37.4435 26.9278 37.4438 26.7946 35.6065 25.6745L35.0061 25.3086L35.3962 25.1445C35.6107 25.0543 35.8172 24.8998 35.8551 24.8011C35.893 24.7023 35.7285 24.1884 35.4895 23.6591C35.0023 22.5802 34.9693 22.356 35.2512 22.0443C35.3591 21.925 35.4759 21.574 35.5108 21.2642L35.5739 20.7006ZM38.5184 21.575C38.7387 21.575 39.056 21.8596 39.056 22.0572C39.056 22.4103 38.8518 22.459 38.6399 22.1564C38.4515 21.8874 38.3862 21.575 38.5184 21.575L38.5184 21.575Z" fill="black" stroke="#FCFCFC" stroke-width="2.44453" stroke-linejoin="round"/>
<path d="M27.6422 4.72095C26.6328 4.72095 26.5234 4.86448 26.3402 6.42753C26.1921 7.69135 25.4609 12.3409 25.2216 13.5421L25.0949 14.1787H24.3197C22.9509 14.1787 21.7167 14.8348 21.7167 15.5625C21.7167 16.1564 22.4074 16.6853 23.3704 16.8288L23.8952 16.9069L22.6703 18.4834L22.7323 20.3627C22.7664 21.3965 22.8319 22.4466 22.8777 22.6967L22.9611 23.1512L21.8842 23.0759C20.2786 22.9634 20.3174 22.8885 20.3408 26.0454C20.351 27.4215 20.3945 28.8597 20.4374 29.2413L20.4959 29.7602L14.6746 32.8306L17.6974 45.3474H48.2031L52.1549 44.9774C52.1509 44.4758 51.9824 43.8598 51.4752 42.4918C50.7719 40.5952 49.4096 36.9073 47.5718 31.9244C46.9777 30.3137 46.3604 28.8291 46.1996 28.6251C45.8742 28.2119 44.8521 27.638 44.4415 27.638C44.295 27.638 44.1421 27.5517 44.1017 27.4462C44.0612 27.3407 44.028 26.3904 44.028 25.3345C44.028 24.2784 43.9853 23.3961 43.933 23.374C43.8425 23.3355 42.2192 21.4337 41.6218 20.666C41.3484 20.3147 41.2966 20.2998 40.1065 20.2329L38.8747 20.1637L37.7714 19.4322C37.1645 19.0298 36.5166 18.6627 36.3318 18.6163C36.0114 18.5359 35.9982 18.5044 36.0521 17.9437C36.0897 17.5526 36.3629 16.8333 36.8673 15.7974C39.4927 10.4047 39.6924 9.94741 39.611 9.51418C39.4948 8.89449 39.0127 8.49727 37.4401 7.72458C33.7049 5.88916 29.8955 4.72147 27.6428 4.72147L27.6422 4.72095ZM35.5739 20.7006L36.0606 20.7785C36.3282 20.8213 36.5904 20.8831 36.6434 20.9159C36.6964 20.9487 36.7079 21.2461 36.6688 21.5769C36.6004 22.1539 36.6178 22.2008 37.0991 22.7229C37.5438 23.2054 37.6009 23.3341 37.6009 23.8568C37.6009 25.0007 38.1328 26.1023 39.3095 27.3952C40.2662 28.4466 40.3376 28.729 39.6472 28.729C39.1977 28.729 38.8596 28.9016 38.6909 29.2169C38.5475 29.4848 38.6599 29.7741 39.1247 30.3331C39.276 30.515 39.5374 30.9548 39.7057 31.3105C40.1874 32.3288 41.3599 35.887 41.3599 36.3308C41.3599 36.5514 41.3071 36.732 41.2425 36.732C41.1779 36.732 40.9109 36.442 40.649 36.0876C39.9724 35.1717 38.6479 33.9963 37.7242 33.4921C35.8146 32.4495 34.6901 31.6176 34.3803 31.0182C34.2036 30.6765 34.2068 30.6714 35.5951 29.0659C37.4435 26.9278 37.4438 26.7946 35.6065 25.6745L35.0061 25.3086L35.3962 25.1445C35.6107 25.0543 35.8172 24.8998 35.8551 24.8011C35.893 24.7023 35.7285 24.1884 35.4895 23.6591C35.0023 22.5802 34.9693 22.356 35.2512 22.0443C35.3591 21.925 35.4759 21.574 35.5108 21.2642L35.5739 20.7006ZM38.5184 21.575C38.7387 21.575 39.056 21.8596 39.056 22.0572C39.056 22.4103 38.8518 22.459 38.6399 22.1564C38.4515 21.8874 38.3862 21.575 38.5184 21.575L38.5184 21.575Z" fill="black"/>
<path opacity="0.2" d="M27.6422 4.72095C26.6328 4.72095 26.5236 4.86462 26.3402 6.42763C26.1921 7.69146 25.4608 12.341 25.2213 13.5422L25.0948 14.1788H24.3196C22.9508 14.1788 21.7165 14.8348 21.7165 15.5625C21.7165 15.7832 21.8123 15.9948 21.9816 16.1811C22.4156 15.7171 23.3312 15.3745 24.3196 15.3745H25.0947L25.2213 14.7378C25.4607 13.5367 26.192 8.88715 26.3402 7.62343C26.5234 6.06046 26.6327 5.91674 27.6422 5.91674C29.8949 5.91674 33.7042 7.08454 37.4394 8.91996C38.6429 9.51136 39.2067 9.883 39.4576 10.3025C39.63 9.85242 39.6415 9.67998 39.6104 9.51379C39.4941 8.89411 39.012 8.49697 37.4394 7.7242C33.7042 5.88878 29.8949 4.72098 27.6421 4.72098L27.6422 4.72095ZM23.0728 17.9641L22.6702 18.4823L22.708 19.6294L23.2825 18.8898L23.8948 18.1016L23.3701 18.0236C23.2675 18.0083 23.1687 17.9877 23.0728 17.964L23.0728 17.9641ZM36.189 18.5722C36.1114 18.8048 36.0653 18.9942 36.0515 19.1383C35.9976 19.699 36.0106 19.7305 36.331 19.8109C36.5159 19.8573 37.1639 20.2244 37.7708 20.6267L38.874 21.3584L40.1062 21.4275C41.2962 21.4944 41.3479 21.5094 41.6215 21.8607C42.219 22.6284 43.8421 24.5302 43.9326 24.5687C43.9848 24.5909 44.0276 25.473 44.0276 26.5291C44.0276 27.5852 44.0607 28.5353 44.1012 28.6407C44.1417 28.7462 44.2945 28.8327 44.441 28.8327C44.8515 28.8327 45.8737 29.4064 46.1992 29.8197C46.3598 30.0236 46.9772 31.5085 47.5713 33.1191C49.4091 38.102 50.7715 41.7897 51.4748 43.6863C51.7172 44.3402 51.8805 44.819 51.9872 45.1989L52.1544 44.9763C52.1504 44.4747 51.982 43.8586 51.4748 42.4905C50.7715 40.594 49.4092 36.9064 47.5713 31.9233C46.9772 30.3126 46.36 28.8277 46.1992 28.6239C45.8738 28.2106 44.8517 27.6369 44.441 27.6369C44.2945 27.6369 44.1417 27.5505 44.1012 27.445C44.0607 27.3395 44.0276 26.3893 44.0276 25.3334C44.0276 24.2773 43.9848 23.3951 43.9326 23.3729C43.842 23.3344 42.2189 21.4326 41.6215 20.6649C41.348 20.3136 41.2962 20.2986 40.1062 20.2317L38.874 20.1626L37.7708 19.4309C37.1639 19.0286 36.516 18.6615 36.331 18.6151C36.273 18.6006 36.2283 18.5869 36.189 18.5722L36.189 18.5722ZM38.5184 22.77C38.3862 22.77 38.4514 23.0823 38.6398 23.3513C38.8518 23.6539 39.056 23.6052 39.056 23.2521C39.056 23.0545 38.7387 22.77 38.5184 22.77V22.77ZM21.1431 23.0365C20.3336 23.0472 20.3215 23.4692 20.3385 25.7151C20.3678 24.1191 20.5987 24.1804 21.8839 24.2704L22.9608 24.3456L22.8774 23.8911C22.857 23.7799 22.8329 23.4952 22.8092 23.1393L21.8839 23.0746C21.5828 23.0536 21.3395 23.0337 21.1431 23.0363L21.1431 23.0365ZM35.2864 23.1909C35.2744 23.2092 35.2625 23.2259 35.2506 23.239C34.9687 23.5505 35.0017 23.7748 35.4888 24.8538C35.5194 24.9216 35.5445 24.9861 35.5724 25.0525C35.7129 24.9689 35.8275 24.8706 35.8545 24.8001C35.8924 24.7013 35.7278 24.1874 35.4888 23.658C35.4073 23.4774 35.3431 23.328 35.2863 23.1909L35.2864 23.1909ZM35.8394 25.8173C35.8584 25.9033 35.8653 25.9676 35.8545 25.9957C35.8167 26.0945 35.6102 26.2491 35.3956 26.3392L35.0054 26.5032L35.6058 26.8691C36.1265 27.1865 36.4992 27.4247 36.7244 27.6517C37.2508 26.828 36.9554 26.5097 35.8393 25.8172L35.8394 25.8173ZM39.4438 28.7425C39.096 28.7877 38.8326 28.9505 38.6904 29.2161C38.5668 29.447 38.6349 29.6946 38.9531 30.1162C39.1324 29.9905 39.368 29.924 39.6468 29.924C40.3006 29.924 40.2612 29.6621 39.4438 28.7425H39.4438ZM20.3994 29.8098L14.6743 32.8294L14.8756 33.9188L20.4955 30.9548L20.4372 30.4359C20.4242 30.3204 20.4115 30.0876 20.3993 29.8097L20.3994 29.8098ZM34.6433 31.3822C34.2347 31.8948 34.2612 31.9834 34.3799 32.2129C34.6898 32.8122 35.8143 33.6442 37.724 34.6866C38.6476 35.1909 39.9722 36.3664 40.6489 37.2821C40.9107 37.6366 41.1777 37.9264 41.2423 37.9264C41.3069 37.9264 41.3598 37.7459 41.3598 37.5252C41.3598 37.4133 41.2845 37.102 41.1652 36.6845C41.0518 36.5898 40.8493 36.3577 40.6489 36.0864C39.9723 35.1705 38.6476 33.9951 37.724 33.4909C36.1755 32.6455 35.1437 31.9387 34.6433 31.3819L34.6433 31.3822Z" fill="white"/>
<path d="M5.85256 22.9786V23.8348H6.98667C7.72722 23.8348 8.42922 24.02 9.09258 24.3903C9.5863 24.668 9.91017 24.9997 10.0645 25.3854C10.265 25.8946 10.3653 26.9433 10.3653 28.5325V44.3393C10.3653 45.6353 10.1801 46.5378 9.80986 47.047C9.455 47.5562 9.09924 47.6913 8.65289 47.8109C7.36259 48.1567 5.17652 48.5061 5.17652 48.6471C5.17652 49.006 5.16446 49.3288 6.7782 49.3288C12.8035 49.3288 14.8086 47.071 14.8086 43.9925V28.5323C14.8086 26.6502 14.9938 25.4624 15.364 24.9686C15.9503 24.2126 16.8838 23.8349 18.1644 23.8349H19.298V22.9787L5.85256 22.9786ZM30.0726 29.3936L26.9383 30.6749L27.0985 31.075C27.4569 30.953 27.7162 30.8924 27.8763 30.8924C28.0745 30.8924 28.2311 30.9416 28.3454 31.0407C28.4675 31.1399 28.5549 31.3269 28.6082 31.6015C28.6692 31.876 28.6998 32.6116 28.6998 33.8088V43.2909C28.6998 43.9467 28.654 44.3816 28.5625 44.595C28.471 44.8085 28.3492 44.9532 28.1967 45.0294C27.9298 45.1743 27.5637 45.2469 27.0986 45.2469V45.6584H32.2915V45.2469C31.7577 45.2469 31.3801 45.1896 31.159 45.0752C30.9455 44.9532 30.797 44.8047 30.7131 44.6294C30.6369 44.454 30.5987 44.0077 30.5987 43.2908V37.7551C31.163 37.1527 31.6471 36.7523 32.0512 36.554C32.4554 36.3557 32.8444 36.2564 33.218 36.2564C33.584 36.2564 33.8967 36.3481 34.156 36.5311C34.4152 36.7065 34.6019 36.9733 34.7163 37.3317C34.8383 37.6901 34.8994 38.441 34.8994 39.5848V43.2909C34.8994 43.8857 34.8879 44.2442 34.865 44.3662C34.7888 44.6559 34.6556 44.877 34.4649 45.0295C34.2743 45.1744 33.9349 45.2469 33.4469 45.2469H33.2065V45.6585H38.3537V45.2469C37.8657 45.2469 37.5301 45.1935 37.3471 45.0867C37.1641 44.98 37.0347 44.8353 36.9585 44.6523C36.8517 44.4083 36.7982 43.9543 36.7982 43.2909V39.5848C36.7982 38.2885 36.7257 37.3967 36.5808 36.9086C36.3749 36.2071 36.0584 35.692 35.6314 35.3641C35.2044 35.0362 34.6936 34.8725 34.0988 34.8725C33.6031 34.8725 33.1076 35.0057 32.612 35.2726C32.1164 35.5319 31.4452 36.1267 30.5989 37.0569V29.3937L30.0726 29.3936ZM20.9334 34.8726C20.0641 34.8726 19.2407 35.1013 18.4628 35.5588C17.685 36.0087 17.056 36.7104 16.5756 37.6636C16.1028 38.6092 15.8665 39.562 15.8665 40.5227C15.8665 41.8419 16.2593 43.0315 17.0448 44.0915C17.9751 45.3497 19.2292 45.9787 20.8076 45.9787C21.776 45.9787 22.653 45.7348 23.4383 45.2468C24.2313 44.7587 24.8528 44.0341 25.3028 43.0733C25.7527 42.1125 25.9776 41.1632 25.9776 40.2255C25.9776 38.891 25.5698 37.709 24.7539 36.6795C23.7931 35.4747 22.5196 34.8722 20.9333 34.8722L20.9334 34.8726ZM41.7967 34.8726L38.6399 36.1534L38.8111 36.5654C39.1085 36.451 39.3643 36.3937 39.5779 36.3937C39.7761 36.3937 39.9322 36.4433 40.0466 36.5425C40.1687 36.6416 40.2565 36.8283 40.3098 37.1028C40.3708 37.3773 40.4014 38.1439 40.4014 39.4022V43.2909C40.4014 44.0534 40.3059 44.5718 40.1153 44.8463C39.9323 45.1132 39.5738 45.2468 39.04 45.2468H38.8112V45.6584H43.9926V45.2468C43.4207 45.2468 43.0397 45.1972 42.8491 45.0981C42.666 44.9913 42.521 44.8275 42.4142 44.6064C42.3303 44.4386 42.2883 44 42.2883 43.2908V37.7664C43.1881 36.7751 44.0918 36.2791 44.9991 36.2791C45.5862 36.2791 46.002 36.4968 46.246 36.9314C46.4977 37.3584 46.6233 38.0483 46.6233 39.0014V43.2907C46.6233 43.8931 46.608 44.2516 46.5775 44.366C46.5012 44.6557 46.3642 44.8768 46.1659 45.0293C45.9753 45.1741 45.6359 45.2467 45.1479 45.2467H44.9304V45.6583H50.1119V45.2467C49.6086 45.2467 49.2619 45.1933 49.0713 45.0865C48.8883 44.9797 48.7547 44.8312 48.6708 44.6406C48.564 44.4042 48.5106 43.9541 48.5106 43.2907V38.8183C48.5106 37.8727 48.427 37.1714 48.2592 36.7139C48.0152 36.0581 47.6873 35.5889 47.2755 35.3069C46.8637 35.0171 46.3716 34.8724 45.7997 34.8724C44.6865 34.8724 43.5159 35.6119 42.2882 37.0913V34.8724L41.7967 34.8726ZM20.5801 35.616C21.4189 35.616 22.1086 35.9822 22.6502 36.7142C23.4508 37.7817 23.8513 39.2459 23.8513 41.1065C23.8513 42.5935 23.6112 43.6419 23.1308 44.252C22.6504 44.862 22.0403 45.167 21.3006 45.167C20.3093 45.167 19.5087 44.6142 18.8987 43.5085C18.2963 42.4028 17.9951 41.0871 17.9951 39.5621C17.9951 38.6165 18.1207 37.8427 18.3723 37.2403C18.624 36.6379 18.9519 36.2187 19.3561 35.9823C19.7678 35.7382 20.176 35.6161 20.5801 35.6161L20.5801 35.616Z" fill="#FFCC44" stroke="black" stroke-width="4.62787"/>
<path d="M5.85217 22.2349V24.329H6.98671C7.72726 24.329 8.42882 24.514 9.0924 24.8843C9.58612 25.162 9.90996 25.4939 10.0642 25.8796C10.2648 26.3888 10.3654 27.4375 10.3654 29.0268V44.8337C10.3654 46.1296 10.1803 45.3813 9.81005 45.8904C9.4552 46.3995 9.09921 46.5345 8.65287 46.6542C7.36257 46.9999 5.17627 47.3491 5.17627 47.4901C5.17627 47.849 5.1643 49.823 6.77807 49.823C12.8033 49.823 14.8087 47.565 14.8087 44.4867V29.0266C14.8087 27.1444 14.9938 25.9566 15.3641 25.463C15.9503 24.707 16.8838 24.3292 18.1643 24.3292H19.2981V22.2351L5.85217 22.2349ZM30.5972 28.237L30.0711 28.2376L26.9368 29.5188L27.0975 31.5697C27.4559 31.4477 27.7152 31.3868 27.8753 31.3868C28.0736 31.3868 28.2297 31.436 28.3441 31.5351C28.4661 31.6342 28.5536 31.8217 28.607 32.0962C28.668 32.3707 28.6984 33.106 28.6984 34.3032V42.1344C28.6984 42.7902 28.6527 43.2252 28.5612 43.4387C28.4697 43.6522 28.3479 43.7967 28.1954 43.8729C27.9285 44.0178 27.5626 44.0909 27.0974 44.0909V46.1531H32.2903V44.0909C31.7565 44.0909 31.3789 44.0334 31.1578 43.9191C30.9443 43.7971 30.7955 43.6483 30.7116 43.4729C30.6354 43.2975 30.5971 42.8512 30.5971 42.1344V38.2498C31.1614 37.6474 31.6456 37.2463 32.0498 37.0481C32.454 36.8498 32.8433 36.7511 33.217 36.7511C33.583 36.7511 33.8954 36.8424 34.1546 37.0254C34.4139 37.2008 34.6006 37.4679 34.7149 37.8263C34.8369 38.1847 34.8978 38.9356 34.8978 40.0794V42.1344C34.8978 42.7291 34.8865 43.0876 34.8637 43.2097C34.7874 43.4994 34.6538 43.7208 34.4632 43.8734C34.2726 44.0182 33.6908 44.5126 33.4452 44.0909H33.205V46.1532H38.3523V44.0909C37.8643 44.0909 37.5289 44.0374 37.3459 43.9306C37.1629 43.8239 37.0332 43.679 36.957 43.496C36.8502 43.252 36.7967 42.7978 36.7967 42.1344V40.0794C36.7967 38.7831 36.7241 36.2401 36.5792 35.7521C36.3733 35.0506 36.0571 34.5356 35.63 34.2077C35.203 33.8798 34.6923 33.7162 34.0975 33.7162C33.6018 33.7162 33.1063 33.8493 32.6107 34.1162C32.1151 34.3755 31.4439 34.9706 30.5975 35.9009L30.5972 28.237ZM20.9318 33.716C20.0627 33.716 19.2393 33.9448 18.4616 34.4023C17.6838 34.8522 17.0548 37.2047 16.5743 38.1578C16.1015 39.1034 15.8649 40.0562 15.8649 41.0169C15.8649 42.3361 16.2577 43.5258 17.0431 44.5858C17.9734 45.844 19.2272 46.4729 20.8057 46.4729C21.7741 46.4729 22.6513 46.2293 23.4365 45.7413C24.2295 45.2533 24.8511 44.5284 25.3011 43.5677C25.751 42.6069 25.9755 41.6577 25.9755 40.7197C25.9755 39.3852 25.5679 36.5525 24.7518 35.5229C23.7911 34.3182 22.5181 33.7156 20.932 33.7156L20.9318 33.716ZM41.7951 33.716L38.638 34.9967L38.8094 37.0599C39.1068 36.9455 39.3625 36.8881 39.5761 36.8881C39.7743 36.8881 39.9309 36.9377 40.0453 37.0368C40.1673 37.1359 40.2548 37.3226 40.3081 37.5971C40.3691 37.8716 40.3996 38.6381 40.3996 39.8964V42.1345C40.3996 42.8971 40.3043 43.4156 40.1137 43.6902C39.9307 43.9571 39.2973 44.5574 39.0384 44.0906H38.8094V46.1529H43.9908V44.0906C43.4189 44.0906 43.0378 44.0406 42.8472 43.9415C42.6641 43.8347 42.5193 43.6711 42.4125 43.45C42.3287 43.2822 42.2869 42.8437 42.2869 42.1345V38.2611C43.1867 37.2698 44.0901 36.7738 44.9976 36.7738C45.5848 36.7738 46.0003 36.9913 46.2442 37.426C46.4958 37.853 46.6215 38.543 46.6215 39.4962V42.1346C46.6215 42.737 46.6059 43.0955 46.5754 43.2099C46.4991 43.4996 46.3625 43.7206 46.1643 43.8732C45.9736 44.018 45.3738 44.5224 45.1463 44.0907H44.9288V46.1529H50.1102V44.0907C49.6069 44.0907 49.2602 44.0372 49.0695 43.9304C48.8865 43.8237 48.7534 43.6753 48.6695 43.4847C48.5628 43.2483 48.5088 42.798 48.5088 42.1346V39.313C48.5088 38.3674 48.4253 36.0152 48.2575 35.5578C48.0135 34.902 47.6859 34.4326 47.2741 34.1505C46.8624 33.8607 46.3699 33.7158 45.798 33.7158C44.6848 33.7158 43.514 34.4558 42.2863 35.9351V33.7158L41.7951 33.716ZM20.5785 36.1104V36.1109C21.4173 36.1109 22.1077 36.4768 22.6491 37.2088C23.4498 38.2764 23.8499 39.7402 23.8499 41.6008C23.8499 43.0878 23.6098 42.4854 23.1294 43.0953C22.649 43.7053 22.0386 44.0107 21.299 44.0107C20.3077 44.0107 19.5076 43.4578 18.8976 42.352C18.2951 41.2464 17.9933 41.5816 17.9933 40.0565C17.9933 39.1109 18.119 38.337 18.3706 37.7347C18.6223 37.1323 18.9503 36.7133 19.3544 36.477C19.7662 36.2329 20.1743 36.1103 20.5784 36.1103L20.5785 36.1104Z" fill="#FFCC44"/>
<path opacity="0.3" d="M5.85217 22.2349V24.329H6.98671C7.72726 24.329 8.42882 24.514 9.0924 24.8843C9.58612 25.162 9.90996 25.4939 10.0642 25.8796C10.2648 26.3888 10.3654 27.4375 10.3654 29.0268V44.8337C10.3654 46.1296 10.1803 45.3813 9.81005 45.8904C9.4552 46.3995 9.09921 46.5345 8.65287 46.6542C7.36257 46.9999 5.17627 47.3491 5.17627 47.4901C5.17627 47.849 5.1643 49.823 6.77807 49.823C12.8033 49.823 14.8087 47.565 14.8087 44.4867V29.0266C14.8087 27.1444 14.9938 25.9566 15.3641 25.463C15.9503 24.707 16.8838 24.3292 18.1643 24.3292H19.2981V22.2351L5.85217 22.2349ZM30.5972 28.237L30.0711 28.2376L26.9368 29.5188L27.0975 31.5697C27.4559 31.4477 27.7152 31.3868 27.8753 31.3868C28.0736 31.3868 28.2297 31.436 28.3441 31.5351C28.4661 31.6342 28.5536 31.8217 28.607 32.0962C28.668 32.3707 28.6984 33.106 28.6984 34.3032V42.1344C28.6984 42.7902 28.6527 43.2252 28.5612 43.4387C28.4697 43.6522 28.3479 43.7967 28.1954 43.8729C27.9285 44.0178 27.5626 44.0909 27.0974 44.0909V46.1531H32.2903V44.0909C31.7565 44.0909 31.3789 44.0334 31.1578 43.9191C30.9443 43.7971 30.7955 43.6483 30.7116 43.4729C30.6354 43.2975 30.5971 42.8512 30.5971 42.1344V38.2498C31.1614 37.6474 31.6456 37.2463 32.0498 37.0481C32.454 36.8498 32.8433 36.7511 33.217 36.7511C33.583 36.7511 33.8954 36.8424 34.1546 37.0254C34.4139 37.2008 34.6006 37.4679 34.7149 37.8263C34.8369 38.1847 34.8978 38.9356 34.8978 40.0794V42.1344C34.8978 42.7291 34.8865 43.0876 34.8637 43.2097C34.7874 43.4994 34.6538 43.7209 34.4632 43.8734C34.2726 44.0182 33.9332 44.0909 33.4452 44.0909H33.205V46.1532H38.3523V44.0909C37.8643 44.0909 37.5289 44.0374 37.3459 43.9306C37.1629 43.8239 37.0332 43.679 36.957 43.496C36.8502 43.252 36.7967 42.7979 36.7967 42.1344V40.0794C36.7967 38.7831 36.7241 36.2401 36.5792 35.7521C36.3733 35.0506 36.0571 34.5356 35.63 34.2077C35.203 33.8798 34.6923 33.7162 34.0975 33.7162C33.6018 33.7162 33.1063 33.8493 32.6107 34.1162C32.1151 34.3755 31.4439 34.9706 30.5975 35.9009L30.5972 28.237ZM20.9318 33.716C20.0627 33.716 19.2393 33.9448 18.4616 34.4023C17.6838 34.8522 17.0548 37.2047 16.5743 38.1578C16.1015 39.1034 15.8649 40.0562 15.8649 41.0169C15.8649 42.3361 16.2577 43.5258 17.0431 44.5858C17.9734 45.844 19.2272 46.4729 20.8057 46.4729C21.7741 46.4729 22.6513 46.2293 23.4365 45.7413C24.2295 45.2533 24.8511 44.5284 25.3011 43.5677C25.751 42.6069 25.9755 41.6577 25.9755 40.7197C25.9755 39.3852 25.5679 36.5525 24.7518 35.5229C23.7911 34.3182 22.5181 33.7156 20.932 33.7156L20.9318 33.716ZM41.7951 33.716L38.638 34.9967L38.8094 37.0599C39.1068 36.9455 39.3625 36.8881 39.5761 36.8881C39.7743 36.8881 39.9309 36.9377 40.0453 37.0368C40.1673 37.1359 40.2548 37.3226 40.3081 37.5971C40.3691 37.8716 40.3996 38.6381 40.3996 39.8964V42.1345C40.3996 42.8971 40.3043 43.4156 40.1137 43.6902C39.9307 43.9571 39.2973 44.5574 39.0384 44.0906H38.8094V46.1529H43.9908V44.0906C43.4189 44.0906 43.0378 44.0406 42.8472 43.9415C42.6641 43.8347 42.5193 43.6711 42.4125 43.45C42.3287 43.2822 42.2869 42.8437 42.2869 42.1345V38.2611C43.1867 37.2698 44.0901 36.7738 44.9976 36.7738C45.5848 36.7738 46.0003 36.9913 46.2442 37.426C46.4958 37.853 46.6215 38.543 46.6215 39.4962V42.1346C46.6215 42.737 46.6059 43.0955 46.5754 43.2099C46.4991 43.4996 46.3625 43.7207 46.1643 43.8732C45.9736 44.018 45.6343 44.0907 45.1463 44.0907H44.9288V46.1529H50.1102V44.0907C49.6069 44.0907 49.2602 44.0372 49.0695 43.9304C48.8865 43.8237 48.7534 43.6753 48.6695 43.4847C48.5628 43.2483 48.5088 42.798 48.5088 42.1346V39.313C48.5088 38.3674 48.4253 36.0152 48.2575 35.5578C48.0135 34.902 47.6859 34.4326 47.2741 34.1505C46.8624 33.8607 46.3699 33.7158 45.798 33.7158C44.6848 33.7158 43.514 34.4558 42.2863 35.9351V33.7158L41.7951 33.716ZM20.5785 36.1104V36.1109C21.4173 36.1109 22.1077 36.4768 22.6491 37.2088C23.4498 38.2764 23.8499 39.7402 23.8499 41.6008C23.8499 43.0878 23.6098 42.4854 23.1294 43.0953C22.649 43.7053 22.0386 44.0107 21.299 44.0107C20.3077 44.0107 19.5076 43.4578 18.8976 42.352C18.2951 41.2464 17.9933 41.5816 17.9933 40.0565C17.9933 39.1109 18.119 38.337 18.3706 37.7347C18.6223 37.1323 18.9503 36.7133 19.3544 36.477C19.7662 36.2329 20.1743 36.1103 20.5784 36.1103L20.5785 36.1104Z" fill="black"/>
<path d="M5.85281 21.8226V22.6788H6.98692C7.72746 22.6788 8.42946 22.864 9.09282 23.2342C9.58653 23.5119 9.91041 23.8437 10.0647 24.2294C10.2653 24.7385 10.3655 25.7872 10.3655 27.3765V43.1833C10.3655 44.4793 10.1804 45.3818 9.8101 45.891C9.45525 46.4002 9.09948 46.5353 8.65314 46.6549C7.36284 47.0006 5.17676 47.3501 5.17676 47.4911C5.17676 47.85 5.16471 48.1728 6.77845 48.1728C12.8037 48.1728 14.8089 45.915 14.8089 42.8365V27.3763C14.8089 25.4942 14.994 24.3064 15.3643 23.8126C15.9505 23.0566 16.884 22.6789 18.1646 22.6789H19.2983V21.8227L5.85281 21.8226ZM30.0728 28.2376L26.9386 29.5189L27.0988 29.919C27.4571 29.797 27.7164 29.7363 27.8765 29.7363C28.0748 29.7363 28.2313 29.7856 28.3457 29.8847C28.4677 29.9838 28.5551 30.1709 28.6085 30.4454C28.6695 30.72 28.7 31.4556 28.7 32.6527V42.1348C28.7 42.7906 28.6542 43.2255 28.5627 43.4389C28.4712 43.6524 28.3494 43.797 28.1969 43.8733C27.93 44.0182 27.5639 44.0907 27.0988 44.0907V44.5023H32.2917V44.0907C31.7579 44.0907 31.3804 44.0335 31.1593 43.9191C30.9458 43.7971 30.7972 43.6486 30.7134 43.4732C30.6371 43.2978 30.5989 42.8515 30.5989 42.1347V36.599C31.1632 35.9966 31.6473 35.5961 32.0514 35.3978C32.4556 35.1996 32.8446 35.1003 33.2183 35.1003C33.5843 35.1003 33.897 35.1919 34.1562 35.3749C34.4155 35.5503 34.6021 35.8172 34.7165 36.1756C34.8385 36.5339 34.8996 37.2849 34.8996 38.4287V42.1348C34.8996 42.7295 34.8882 43.088 34.8653 43.21C34.789 43.4998 34.6558 43.7208 34.4652 43.8734C34.2745 44.0182 33.9352 44.0908 33.4471 44.0908H33.2068V44.5023H38.354V44.0908C37.866 44.0908 37.5304 44.0373 37.3474 43.9306C37.1644 43.8238 37.035 43.6791 36.9587 43.4961C36.852 43.2521 36.7985 42.7982 36.7985 42.1347V38.4287C36.7985 37.1324 36.726 36.2405 36.5811 35.7525C36.3752 35.0509 36.0587 34.5359 35.6317 34.208C35.2047 33.8801 34.6938 33.7163 34.099 33.7163C33.6033 33.7163 33.1078 33.8496 32.6123 34.1165C32.1166 34.3757 31.4455 34.9705 30.5991 35.9008V28.2375L30.0728 28.2376ZM20.9337 33.7166C20.0644 33.7166 19.241 33.9453 18.4631 34.4028C17.6853 34.8527 17.0562 35.5544 16.5758 36.5076C16.1031 37.4532 15.8667 38.406 15.8667 39.3667C15.8667 40.6858 16.2596 41.8754 17.045 42.9355C17.9753 44.1937 19.2295 44.8227 20.8079 44.8227C21.7763 44.8227 22.6532 44.5788 23.4385 44.0908C24.2316 43.6027 24.8531 42.8781 25.3031 41.9173C25.753 40.9565 25.9778 40.0072 25.9778 39.0695C25.9778 37.735 25.5701 36.553 24.7541 35.5235C23.7933 34.3186 22.5198 33.7162 20.9336 33.7162L20.9337 33.7166ZM41.7969 33.7166L38.6402 34.9974L38.8114 35.4094C39.1088 35.295 39.3646 35.2377 39.5781 35.2377C39.7764 35.2377 39.9325 35.2873 40.0469 35.3865C40.1689 35.4856 40.2567 35.6723 40.3101 35.9468C40.3711 36.2213 40.4016 36.9879 40.4016 38.2462V42.1349C40.4016 42.8974 40.3062 43.4158 40.1155 43.6903C39.9325 43.9572 39.5741 44.0908 39.0403 44.0908H38.8114V44.5024H43.9928V44.0908C43.4209 44.0908 43.0399 44.0412 42.8493 43.9421C42.6663 43.8353 42.5212 43.6715 42.4144 43.4504C42.3306 43.2826 42.2886 42.8439 42.2886 42.1348V36.6104C43.1883 35.6191 44.092 35.1231 44.9993 35.1231C45.5864 35.1231 46.0022 35.3408 46.2463 35.7754C46.4979 36.2024 46.6235 36.8923 46.6235 37.8454V42.1347C46.6235 42.7371 46.6082 43.0956 46.5777 43.21C46.5015 43.4997 46.3644 43.7208 46.1662 43.8733C45.9755 44.0181 45.6361 44.0907 45.1481 44.0907H44.9307V44.5023H50.1121V44.0907C49.6088 44.0907 49.2622 44.0372 49.0716 43.9305C48.8885 43.8237 48.7549 43.6752 48.671 43.4846C48.5643 43.2482 48.5108 42.7981 48.5108 42.1347V37.6623C48.5108 36.7167 48.4272 36.0154 48.2595 35.5579C48.0155 34.9021 47.6875 34.4328 47.2757 34.1509C46.864 33.8611 46.3719 33.7164 45.7999 33.7164C44.6867 33.7164 43.5161 34.4559 42.2885 35.9353V33.7164L41.7969 33.7166ZM20.5804 34.46C21.4192 34.46 22.1089 34.8261 22.6504 35.5582C23.451 36.6257 23.8516 38.0899 23.8516 39.9505C23.8516 41.4375 23.6114 42.4859 23.131 43.0959C22.6506 43.706 22.0406 44.011 21.3009 44.011C20.3096 44.011 19.509 43.4582 18.899 42.3524C18.2966 41.2468 17.9954 39.9311 17.9954 38.4061C17.9954 37.4605 18.1209 36.6867 18.3726 36.0843C18.6242 35.4819 18.9522 35.0627 19.3563 34.8262C19.7681 34.5822 20.1762 34.4601 20.5803 34.4601L20.5804 34.46Z" fill="#FFCC44"/>
<path d="M35.2779 19.856C35.3457 19.7292 35.4159 19.3063 35.4337 18.9162L35.4662 18.207L34.3749 17.6352C32.0558 16.4201 27.4978 14.6625 26.0762 14.4351C25.6124 14.361 25.584 14.3737 25.584 14.6559C25.584 14.9156 25.7007 15.0004 26.4631 15.2947C28.5917 16.1164 31.5513 17.8127 33.9505 19.5857C34.6824 20.1267 35.0886 20.2094 35.2779 19.8559L35.2779 19.856Z" fill="#D41919"/>
<path opacity="0.2" d="M25.7162 14.397C25.5946 14.4074 25.5835 14.4787 25.5835 14.655C25.5835 14.7502 25.5994 14.8219 25.6568 14.889C25.7221 14.8604 25.8448 14.8757 26.0756 14.9126C27.4973 15.14 32.0554 16.8975 34.3743 18.1127L35.4441 18.6732L35.4656 18.2061L34.3743 17.6344C32.0552 16.4193 27.4972 14.6619 26.0756 14.4344C25.9016 14.4065 25.7891 14.3907 25.7161 14.397L25.7162 14.397Z" fill="black"/>
</svg>
