<svg width="18" height="18" viewBox="0 0 18 18" xmlns="http://www.w3.org/2000/svg">
<path d="M6.11719 11.8846C4.39453 10.8879 3.23438 9.02461 3.23438 6.89062C3.23438 3.70723 5.8166 1.125 9 1.125C12.1834 1.125 14.7656 3.70723 14.7656 6.89062C14.7656 9.02461 13.6055 10.8879 11.8828 11.8846V13.9219C11.8828 14.233 11.6314 14.4844 11.3203 14.4844H6.67969C6.36855 14.4844 6.11719 14.233 6.11719 13.9219V11.8846ZM6.89062 15.6094H11.1094C11.1867 15.6094 11.25 15.6727 11.25 15.75V16.3125C11.25 16.6236 10.9986 16.875 10.6875 16.875H7.3125C7.00137 16.875 6.75 16.6236 6.75 16.3125V15.75C6.75 15.6727 6.81328 15.6094 6.89062 15.6094Z"/>
</svg>
