<svg xmlns="http://www.w3.org/2000/svg" viewBox="0 0 417.01 434.56"><defs><style>.a{fill:url(#a);}.b,.d,.e{isolation:isolate;}.b{opacity:0.5;}.c{fill:url(#b);}.d,.f{fill:#fff;}.d{opacity:0.2;}.e{opacity:0.3;}</style><radialGradient id="a" cx="-319.25" cy="195.14" r="157.58" gradientTransform="matrix(1.74, -0.35, -0.16, -2.46, 794.6, 589.31)" gradientUnits="userSpaceOnUse"><stop offset="0"/><stop offset="1" stop-color="#4c4f5c"/></radialGradient><linearGradient id="b" x1="-86.21" y1="-6.72" x2="204.08" y2="392.91" gradientTransform="matrix(1.19, -0.19, -0.19, -1.19, 187.66, 443.56)" gradientUnits="userSpaceOnUse"><stop offset="0" stop-color="#23bac2"/><stop offset="1" stop-color="#367bf0"/></linearGradient></defs><ellipse class="a" cx="208.51" cy="219.27" rx="154.79" ry="221.14" transform="translate(-59.4 78.62) rotate(-18.74)"/><path class="b" d="M45.81,172.07c-.17,45.33,11.06,92.77,32,135.22,53.69,108.47,155.74,157,227.92,108.39,43.36-29.23,67.89-88.88,65.48-159.23-.11,66.13-24.37,121.42-65.48,149.23-72.18,48.61-174.23.08-227.92-108.39-19.41-39.25-30.55-82.87-32-125.22Z"/><path class="c" d="M374.77.12A8.46,8.46,0,0,0,370.64,2L140.44,200a8.42,8.42,0,0,0,4.16,14.7l56.78,9.07L2.94,400.32c-8,7.1,1.9,19.37,10.54,13.09L342.07,174.59a8.41,8.41,0,0,0-2.76-14.93l-44.7-12L413.89,51.08a8.42,8.42,0,0,0,1-12.17L382.38,2.79A8.43,8.43,0,0,0,374.77.11Z"/><path class="d" d="M374.76.11h0A8.38,8.38,0,0,0,370.64,2L140.44,200c-3.07,2.21,1.17,2.49,5.44,3.29L372.58,14A8.38,8.38,0,0,1,376.71,12h0a8.43,8.43,0,0,1,7.61,2.68l31.16,34.66a8.41,8.41,0,0,0-.62-10.45L382.37,2.8A8.42,8.42,0,0,0,374.76.11ZM212.44,213.9,2.94,400.32c-4.76,4.24-3.16,10.32.75,13.2a9.51,9.51,0,0,1,1.2-1.28L225.45,216Z"/><path class="e" d="M413.53,37.45A8.24,8.24,0,0,1,412,39.16L282.1,144.3l12.51,3.36L413.89,51.08a8.41,8.41,0,0,0,1-12.16ZM341.94,160.9a8.56,8.56,0,0,1-1.82,1.78L11.53,401.5a8,8,0,0,1-9.8.1c-5.63,7.18,3.6,17.73,11.74,11.82L342.06,174.6a8.42,8.42,0,0,0-.12-13.7ZM139.17,201.36a8.41,8.41,0,0,0,5.43,13.31l56.78,9.07,11.06-9.84-69.78-11.15a8.34,8.34,0,0,1-3.49-1.38Z"/><path class="e" d="M213.14,99.37a93.51,93.51,0,0,0-83.62,51.71l16.77,8.38a74.71,74.71,0,0,1,133.73,0l16.66-8.32a93.53,93.53,0,0,0-83.54-51.75Zm0,37.41a56.11,56.11,0,0,0-50.17,31l16.75,8.36a37.36,37.36,0,0,1,66.87,0l16.67-8.33a56.1,56.1,0,0,0-50.12-31.05ZM213,173.71c-9.81,0-15.95,6.34-15.95,16.15S203.19,205.8,213,205.8s16.15-6.13,16.15-15.94S222.81,173.71,213,173.71Z"/><path class="f" d="M213.14,93.37a93.51,93.51,0,0,0-83.62,51.71l16.77,8.38a74.71,74.71,0,0,1,133.73,0l16.66-8.32a93.53,93.53,0,0,0-83.54-51.75Zm0,37.41a56.11,56.11,0,0,0-50.17,31l16.75,8.36a37.36,37.36,0,0,1,66.87,0l16.67-8.33a56.1,56.1,0,0,0-50.12-31.05ZM213,167.71c-9.81,0-15.95,6.34-15.95,16.15S203.19,199.8,213,199.8s16.15-6.13,16.15-15.94S222.81,167.71,213,167.71Zm-114.27,8L46.81,317.55h28L86.46,282h54.38l11.65,35.57h29.23L132.46,175.68Zm159.24,0V317.55h26.37V264.61h23.92l30.25,52.94H370.2l-35.57-58.46C351,251.32,361.2,236.19,361.2,217c0-26.17-19.21-41.3-50.29-41.3ZM113.85,198.37l19.42,60.1h-39Zm170.49.2h23.1c16.56,0,26.37,8.39,26.37,22.49,0,13.29-8.18,21.26-22.9,21.26H284.34ZM199.91,218.2v99.35h26V218.2Z"/><path class="e" d="M284.35,254.6v10h23.91l30.26,52.95H370.2l-6.08-10h-25.6l-30.26-53ZM86.47,272,74.81,307.55H50.47l-3.66,10h28L86.46,282h54.38l11.65,35.57h29.23l-3.47-10H152.49L140.84,272Zm113.45,35.57v10h26v-10Zm58.05,0v10h26.37v-10Z"/></svg>