<svg xmlns="http://www.w3.org/2000/svg" viewBox="0 0 346.22 450"><defs><style>.a{fill:url(#a);}.b,.g{fill:#fff;}.b,.c,.e,.f,.g{isolation:isolate;}.b{opacity:0.2;}.c,.f,.g{opacity:0.3;}.c{fill:url(#b);}.d{fill:#153873;}.e{opacity:0.5;}</style><radialGradient id="a" cx="446.14" cy="646.63" r="129.81" gradientTransform="matrix(2.38, 0, 0, -3.1, -890.06, 2115.27)" gradientUnits="userSpaceOnUse"><stop offset="0" stop-color="#80c6ed"/><stop offset="1" stop-color="#347aa1"/></radialGradient><linearGradient id="b" x1="678.56" y1="604.89" x2="678.56" y2="361.15" gradientTransform="matrix(1.33, 0, 0, -1.33, -731.43, 835.94)" gradientUnits="userSpaceOnUse"><stop offset="0" stop-color="#fff"/><stop offset="1" stop-color="#fff" stop-opacity="0"/></linearGradient></defs><path class="a" d="M346.22,178.2c0,212.35-173.09,271.8-173.09,271.8C171.34,450,0,389,0,178.2,0,71.88,95.41,0,173.13,0S346.22,72.94,346.22,178.2Z"/><path class="b" d="M36.79,225.44a81.89,81.89,0,0,0-2,17.76c0,45.68,37,84.19,82.73,86a80.87,80.87,0,0,0,35-6.46L145,310.79l-4.83.24q-2.42.12-4.77.15A112,112,0,0,1,117.26,310c-1.45-.22-2.87-.46-4.28-.74s-2.81-.59-4.18-.92-2.74-.71-4.08-1.1-2.67-.82-4-1.27-2.59-.93-3.86-1.44-2.53-1-3.76-1.61-2.45-1.15-3.65-1.77-2.37-1.27-3.53-1.94-2.31-1.38-3.43-2.11c-2.24-1.45-4.41-3-6.5-4.69a87.68,87.68,0,0,1-8.86-8.16c-12-12.68-20.71-29.13-26.9-48.13Zm272.58,0-3.46,10.64c-6.19,19-14.88,35.45-26.9,48.13a87.68,87.68,0,0,1-8.86,8.16c-2.09,1.67-4.26,3.24-6.5,4.69-1.12.73-2.27,1.44-3.43,2.11s-2.34,1.32-3.53,1.94-2.42,1.21-3.65,1.77-2.49,1.1-3.76,1.61-2.56,1-3.86,1.44-2.64.87-4,1.27-2.7.76-4.08,1.09-2.77.65-4.18.93-2.83.52-4.28.74a112,112,0,0,1-18.12,1.22q-2.35,0-4.77-.15l-4.83-.24-7.48,11.95a80.87,80.87,0,0,0,35,6.46c45.69-1.81,82.73-40.32,82.73-86a81.89,81.89,0,0,0-2-17.76Z"/><circle class="c" cx="173.32" cy="144.26" r="138.85"/><path class="d" d="M37.19,227.48l4.53,13.73c6.1,18.49,14.67,34.37,26.52,46.41a79.84,79.84,0,0,0,8.74,7.7h0a75.5,75.5,0,0,0,6.41,4.38h0c1.11.67,2.24,1.32,3.38,1.94h0c1.15.62,2.31,1.21,3.49,1.78h0c1.18.56,2.38,1.1,3.6,1.6h0c1.21.51,2.45,1,3.7,1.44h0c1.25.45,2.53.88,3.81,1.27s2.6.76,3.92,1.09,2.67.65,4,.93,2.73.52,4.12.74,2.8.41,4.22.57a109.55,109.55,0,0,0,17.87.49c1.55-.08,3.12-.19,4.7-.33l4.77-.43,7.79,12.13a65.46,65.46,0,0,0-1.06-12.73l.47,0L149,298.57c-5.69-20.38-20.5-37.29-38.29-49.55l-.12-.08h0q-3.36-2.31-6.84-4.39h0c-1.16-.69-2.33-1.37-3.51-2h0c-1.18-.66-2.37-1.29-3.57-1.91h0c-1.2-.62-2.41-1.21-3.62-1.79h0c-1.21-.57-2.43-1.13-3.66-1.66h0c-1.23-.54-2.46-1-3.7-1.54s-2.49-1-3.74-1.41-2.5-.87-3.76-1.27-2.52-.78-3.78-1.14-2.53-.69-3.8-1a97.46,97.46,0,0,0-18.95-2.74Zm271.85,0-14.44.6c-13.78.57-28,4.42-41.39,10.75-2.43,1.15-4.83,2.39-7.2,3.7-3.54,2-7,4.1-10.35,6.4l-.12.09c-17.8,12.26-32.61,29.17-38.3,49.55L194,310.14l.47.05a65.47,65.47,0,0,0-1.07,12.73l7.8-12.13,4.76.42a106.14,106.14,0,0,0,30.92-1.47,85.15,85.15,0,0,0,11.76-3.28c1.25-.45,2.49-.93,3.7-1.44a76.1,76.1,0,0,0,16.89-9.7c1-.78,2-1.59,3-2.42,14.86-12.49,25.18-30.36,32.22-51.69Z"/><path class="e" d="M40.16,230.33c16.75,50.75,48.7,79.53,104,74.58-11.45-41-62.3-72.85-104-74.58Zm265,0c-41.73,1.73-92.58,33.54-104,74.58,55.32,4.95,87.28-23.83,104-74.58Z"/><path class="f" d="M173.09,411a36.06,36.06,0,0,0-33.57,23c19.42,11.54,33.07,16,33.57,16,0,0,13.49-5.15,32.94-17.53A36.06,36.06,0,0,0,173.09,411Z"/><path class="f" d="M.09,174.3c0,1.3-.06,2.6-.06,3.9C0,389,171.33,450,173.12,450c0,0,173.09-59.45,173.09-271.8,0-1.28,0-2.55,0-3.82-3.32,207.33-173,265.62-173,265.62C171.36,440,3.36,380.2.1,174.3Z"/><path class="g" d="M173.09,0C95.37,0,0,71.88,0,178.2q0,3.08.06,6.1C1.46,120.48,37.29,69.43,82.48,39.47A138.19,138.19,0,0,1,267,42c43.61,30.45,77.72,80.67,79.08,142.34q.06-3.06.06-6.17C346.18,72.94,250.81,0,173.09,0Z"/></svg>