<svg width="32" height="32" viewBox="0 0 65 65" fill="none" xmlns="http://www.w3.org/2000/svg">
<path d="M48.1571 6.78882C45.1554 6.78912 42.7222 9.22238 42.7219 12.2241V16.6775H8.60321C5.60153 16.6778 3.16835 19.111 3.16797 22.1127V40.2416C3.16827 43.2433 5.60153 45.6765 8.60321 45.6768H29.977C30.528 46.9583 31.5506 47.979 32.8332 48.5276V51.7782C32.8336 54.7799 35.2668 57.2131 38.2685 57.2135H46.5085C49.5102 57.2131 51.9434 54.7799 51.9437 51.7782V48.533C53.2253 47.9821 54.246 46.9595 54.7947 45.6768H56.3973C59.3989 45.6765 61.8321 43.2433 61.8325 40.2416V12.2256C61.8321 9.22391 59.3989 6.79072 56.3973 6.79034L48.1571 6.78882Z" fill="#F8F8F8"/>
<path d="M48.1572 12.2238V22.1124H8.60364V40.2413H34.9731V43.5376H38.2694V51.778H46.5096V43.5376H49.8059V40.2413H56.3982V12.2253L48.1572 12.2238Z" fill="#F8F8F8"/>
<path d="M49.8049 10.5757V12.2238H54.7491V10.5757H51.4532H49.8049ZM46.5086 13.872V20.4643H48.1567V13.872H46.5086ZM56.3972 13.872V20.4643H58.0453V13.872H56.3972ZM10.251 20.4643V22.1124H25.083V20.4643H11.8989H10.251ZM30.0278 20.4643V22.1124H44.861V20.4643H31.6769H30.0278ZM6.95533 23.7607V30.3529H8.60344V23.7607H6.95533ZM26.7321 23.7607V30.3529H28.3802V23.7607H26.7321ZM46.5088 23.7607V30.3529H48.157V23.7607H46.5088ZM56.3975 23.7607V30.3529H58.0456V23.7607H56.3975ZM20.1397 27.0566V28.7047H25.0841V27.0566H21.7878H20.1397ZM10.2514 30.3529V32.0008H15.1956V30.3529H11.8993H10.2514ZM6.95508 33.6489V40.2412H8.60318V33.6489H6.95508ZM26.7318 33.6489V40.2412H28.3799V33.6489H26.7318ZM46.5086 33.6489V40.2412H48.1567V33.6489H46.5086ZM56.3972 33.6489V40.2412H58.0453V33.6489H56.3972ZM10.251 41.8893V43.5374H25.0842V41.8893H11.9002H10.251ZM30.0278 41.8893V43.5374H34.9722V41.8893H31.6759H30.0278ZM49.8046 41.8893V43.5374H54.7487V41.8893H51.4528H49.8046ZM36.6205 45.1856V51.7779H38.2686V45.1856H36.6205ZM46.5087 45.1856V51.7779H48.1568V45.1856H46.5087ZM39.9164 53.4258V55.0739H44.8609V53.4258H41.5645H39.9164Z" fill="#03232E"/>
<path d="M49.8049 10.5757V12.2238H54.7491V10.5757H51.4532H49.8049ZM46.5086 13.872V20.4643H48.1567V13.872H46.5086ZM56.3972 13.872V20.4643H58.0453V13.872H56.3972ZM10.251 20.4643V22.1124H25.083V20.4643H11.8989H10.251ZM30.0278 20.4643V22.1124H44.861V20.4643H31.6769H30.0278ZM6.95533 23.7607V30.3529H8.60344V23.7607H6.95533ZM26.7321 23.7607V30.3529H28.3802V23.7607H26.7321ZM46.5088 23.7607V30.3529H48.157V23.7607H46.5088ZM56.3975 23.7607V30.3529H58.0456V23.7607H56.3975ZM20.1397 27.0566V28.7047H25.0841V27.0566H21.7878H20.1397ZM10.2514 30.3529V32.0008H15.1956V30.3529H11.8993H10.2514ZM6.95508 33.6489V40.2412H8.60318V33.6489H6.95508ZM26.7318 33.6489V40.2412H28.3799V33.6489H26.7318ZM46.5086 33.6489V40.2412H48.1567V33.6489H46.5086ZM56.3972 33.6489V40.2412H58.0453V33.6489H56.3972ZM10.251 41.8893V43.5374H25.0842V41.8893H11.9002H10.251ZM30.0278 41.8893V43.5374H34.9722V41.8893H31.6759H30.0278ZM49.8046 41.8893V43.5374H54.7487V41.8893H51.4528H49.8046ZM36.6205 45.1856V51.7779H38.2686V45.1856H36.6205ZM46.5087 45.1856V51.7779H48.1568V45.1856H46.5087ZM39.9164 53.4258V55.0739H44.8609V53.4258H41.5645H39.9164Z" fill="#E1E1E1"/>
<path d="M49.8049 8.92761V10.5757H54.7491V8.92761H51.4532H49.8049ZM46.5086 12.224V18.8162H48.1567V12.224H46.5086ZM56.3972 12.224V18.8162H58.0453V12.224H56.3972ZM10.251 18.8162V20.4644H25.083V18.8162H11.8989H10.251ZM30.0278 18.8162V20.4644H44.861V18.8162H31.6769H30.0278ZM6.95533 22.1126V28.7049H8.60344V22.1126H6.95533ZM26.7321 22.1126V28.7049H28.3802V22.1126H26.7321ZM46.5088 22.1126V28.7049H48.157V22.1126H46.5088ZM56.3975 22.1126V28.7049H58.0456V22.1126H56.3975ZM20.1397 25.4085V27.0566H25.0841V25.4085H21.7878H20.1397ZM10.2514 28.7049V30.3527H15.1956V28.7049H11.8993H10.2514ZM6.95508 32.0008V38.5931H8.60318V32.0008H6.95508ZM26.7318 32.0008V38.5931H28.3799V32.0008H26.7318ZM46.5086 32.0008V38.5931H48.1567V32.0008H46.5086ZM56.3972 32.0008V38.5931H58.0453V32.0008H56.3972ZM10.251 40.2412V41.8893H25.0842V40.2412H11.9002H10.251ZM30.0278 40.2412V41.8893H34.9722V40.2412H31.6759H30.0278ZM49.8046 40.2412V41.8893H54.7487V40.2412H51.4528H49.8046ZM36.6205 43.5376V50.1299H38.2686V43.5376H36.6205ZM46.5087 43.5376V50.1299H48.1568V43.5376H46.5087ZM39.9164 51.7777V53.4258H44.8609V51.7777H41.5645H39.9164Z" fill="#03232E"/>
<path d="M36.6209 28.7041V30.3521H34.9727V32.0003H36.6209V33.6485H38.2691V32.0003H39.9174V30.3521H38.2691V28.7041H36.6209Z" fill="#03232E"/>
<path opacity="0.3" d="M36.6209 28.7041V30.3521H34.9727V32.0003H36.6209V33.6485H38.2691V32.0003H39.9174V30.3521H38.2691V28.7041H36.6209Z" fill="black"/>
<path d="M36.6209 27.0563V28.7043H34.9727V30.3525H36.6209V32.0007H38.2691V30.3525H39.9174V28.7043H38.2691V27.0563H36.6209Z" fill="#03232E"/>
</svg>
