<svg width="32" height="32" viewBox="0 0 58 58" fill="none" xmlns="http://www.w3.org/2000/svg">
<path opacity="0.3" d="M28.9614 4.34118C28.9467 4.34135 28.932 4.34165 28.9173 4.34209C28.7869 4.34556 28.657 4.3597 28.529 4.38438L4.8614 8.95717C4.32168 9.06142 3.83535 9.3486 3.4858 9.76946C3.13625 10.1903 2.94525 10.7186 2.94556 11.2638V46.7739C2.94558 46.7882 2.94573 46.8025 2.94601 46.8168C2.94601 46.817 2.94601 46.8171 2.94601 46.8173C2.94601 46.8174 2.94601 46.8174 2.94601 46.8175C2.94625 46.8319 2.94663 46.8463 2.94714 46.8607C2.94714 46.8608 2.94714 46.8609 2.94714 46.8609C2.94714 46.8611 2.94714 46.8613 2.94714 46.8614C2.94769 46.8757 2.94837 46.8901 2.94918 46.9044C2.94918 46.9045 2.94918 46.9047 2.94918 46.9048C2.94918 46.9049 2.94918 46.905 2.94918 46.9051C2.95003 46.9194 2.95101 46.9337 2.95212 46.948C2.95212 46.9482 2.95212 46.9484 2.95212 46.9485C2.95212 46.9486 2.95212 46.9487 2.95212 46.9487C2.95319 46.9631 2.9544 46.9774 2.95574 46.9917C2.95574 46.9918 2.95574 46.9919 2.95574 46.9919C2.95574 46.9921 2.95574 46.9923 2.95574 46.9924C2.95711 47.0067 2.95862 47.0209 2.96026 47.0352C2.96026 47.0353 2.96026 47.0355 2.96026 47.0356C2.96026 47.0357 2.96026 47.0358 2.96026 47.0358C2.96194 47.0501 2.96375 47.0644 2.96569 47.0786C2.96569 47.0787 2.96569 47.0789 2.96569 47.0791C2.96569 47.0792 2.96569 47.0794 2.96569 47.0795C2.96759 47.0937 2.96963 47.1079 2.97179 47.122C2.97179 47.1222 2.97179 47.1223 2.97179 47.1225C2.97615 47.1515 2.98105 47.1803 2.98649 47.2091C2.98923 47.2233 2.99209 47.2375 2.99509 47.2516C3.00103 47.2803 3.00752 47.3089 3.01454 47.3374C3.0181 47.3514 3.0218 47.3654 3.02562 47.3794C3.02562 47.3795 3.02562 47.3796 3.02562 47.3797C3.02941 47.3936 3.03333 47.4076 3.03738 47.4215C3.15795 47.8386 3.39267 48.2144 3.71552 48.5072C4.03836 48.8001 4.43671 48.9985 4.86638 49.0806L28.5316 53.6152C28.6859 53.645 28.8427 53.6594 28.9998 53.6584V53.6579C29.1441 53.657 29.2879 53.6422 29.4295 53.615L53.133 49.0802C54.0391 48.9072 54.7409 48.2361 54.9721 47.3864C54.9722 47.3863 54.9721 47.3861 54.9721 47.3859C55.0077 47.2554 55.0322 47.1205 55.0445 46.9827C55.0445 46.9826 55.0445 46.9826 55.0445 46.9825C55.0507 46.9135 55.0538 46.8438 55.0538 46.7735V12.411C55.0538 12.4144 55.0543 12.4177 55.0543 12.4212V11.2632C55.0544 10.982 55.004 10.7107 54.9113 10.4585C54.8457 10.2799 54.7579 10.1116 54.6524 9.95553C54.6461 9.9463 54.6409 9.9364 54.6345 9.92726C54.5966 9.87287 54.5563 9.82017 54.514 9.76917C54.5138 9.76901 54.5136 9.76888 54.5135 9.76872C54.4315 9.67006 54.341 9.57832 54.2437 9.49394C54.2401 9.49086 54.2371 9.48727 54.2335 9.48421C54.183 9.44092 54.1305 9.39977 54.0763 9.36073C54.0761 9.36056 54.0759 9.36044 54.0756 9.36027C54.0213 9.32121 53.9653 9.28443 53.9076 9.24991C53.7917 9.18067 53.6689 9.12093 53.5405 9.07168C53.4118 9.02233 53.2774 8.98327 53.1379 8.95634L29.4345 4.38367C29.338 4.36566 29.2404 4.35576 29.1425 4.34975C29.0948 4.34662 29.0472 4.34258 28.9993 4.34251C28.9866 4.3418 28.9739 4.3412 28.9611 4.3407L28.9614 4.34118Z" fill="black"/>
<path d="M29 4.34392V53.6586C29.1444 53.6577 29.2883 53.6428 29.43 53.6156L53.1341 49.0808C54.2493 48.8679 55.0552 47.9003 55.055 46.7742V11.2639C55.0556 10.1394 54.2523 9.17227 53.1392 8.95726L29.4351 4.38443C29.2916 4.35765 29.146 4.34408 29 4.34387L29 4.34392Z" fill="url(#paint0_linear)"/>
<path opacity="0.3" d="M42.4918 12.0123V18.4769L34.6011 26.4353H42.4918V32.9489H49.8428L42.4918 41.8376V47.3717" stroke="black" stroke-width="2.79148"/>
<path d="M42.4918 10.855V17.3196L34.6011 25.278H42.4918V31.7915H49.8428L42.4918 40.6802V46.2144" stroke="#FDFDFD" stroke-width="2.79148"/>
<path d="M28.9615 4.34216C28.8163 4.34335 28.6715 4.35777 28.529 4.38525L4.86113 8.95807C4.32141 9.06233 3.83509 9.3495 3.48554 9.77036C3.136 10.1912 2.945 10.7195 2.94531 11.2647V46.775C2.94523 47.3209 3.13695 47.8498 3.48751 48.2707C3.83806 48.6917 4.32557 48.9784 4.86622 49.0816L28.5318 53.6164C28.686 53.6461 28.8429 53.6605 29 53.6595V4.34474C28.9873 4.34379 28.9745 4.34295 28.9618 4.3422L28.9615 4.34216Z" fill="#272A34"/>
<path opacity="0.3" d="M28.9615 4.34216C28.8163 4.34335 28.6715 4.35777 28.529 4.38525L4.86113 8.95807C4.32141 9.06233 3.83509 9.3495 3.48554 9.77036C3.136 10.1912 2.945 10.7195 2.94531 11.2647V46.775C2.94523 47.3209 3.13695 47.8498 3.48751 48.2707C3.83806 48.6917 4.32557 48.9784 4.86622 49.0816L28.5318 53.6164C28.686 53.6461 28.8429 53.6605 29 53.6595V4.34474C28.9873 4.34379 28.9745 4.34295 28.9618 4.3422L28.9615 4.34216Z" fill="black"/>
<defs>
<linearGradient id="paint0_linear" x1="11.6324" y1="30.3672" x2="61.0681" y2="30.3672" gradientUnits="userSpaceOnUse">
<stop stop-color="#FD3535"/>
<stop offset="1" stop-color="#FD7D00"/>
</linearGradient>
</defs>
</svg>
