<svg width="54" height="54" viewBox="0 0 54 54" fill="none" xmlns="http://www.w3.org/2000/svg">
    <path d="M38.7591 27.3319C38.7591 32.1869 33.4439 36.1223 26.8871 36.1223C20.3303 36.1223 15.0151 32.1868 15.0151 27.3319C15.0151 22.4769 20.3303 18.5414 26.8871 18.5414C33.4439 18.5414 38.7591 22.4769 38.7591 27.3319Z"
          fill="#D72E2E"/>
    <path d="M27.7987 17.7679C18.6862 17.7679 10.904 21.9646 7.75122 27.8889C10.904 33.813 18.6859 38.0098 27.7987 38.0098C36.9112 38.0098 44.6934 33.8131 47.8462 27.8889C44.6928 21.9648 36.9108 17.7679 27.7987 17.7679Z"
          fill="black" fill-opacity="0.2"/>
    <path d="M27 15.4448C16.4722 15.4448 7.48124 20.2933 3.83905 27.1379C7.48152 33.982 16.472 38.831 27 38.831C37.5277 38.831 46.5187 33.9824 50.1609 27.1379C46.5185 20.2939 37.528 15.4448 27 15.4448Z"
          fill="#80C6ED" stroke="#2656A8" stroke-width="2.79506" stroke-linejoin="round"/>
    <path opacity="0.7"
          d="M27.0337 16.8342C36.773 16.8342 45.0154 21.2177 48.5719 27.1298C45.0159 33.0422 36.7727 37.4254 27.0337 37.4254C17.2945 37.4254 9.05201 33.042 5.49561 27.1298C9.05159 21.2174 17.2947 16.8342 27.0337 16.8342Z"
          fill="white"/>
    <path d="M38.4736 26.5739C38.4736 32.9719 33.2871 38.1585 26.8891 38.1585C20.491 38.1585 15.3045 32.9719 15.3045 26.5739C15.3045 20.1759 20.491 14.9894 26.8891 14.9894C33.2871 14.9894 38.4736 20.1759 38.4736 26.5739Z"
          fill="#2656A8"/>
    <path d="M32.2742 20.6157L20.9576 32.0965C22.4834 33.7545 24.6344 34.699 26.8875 34.7013C31.3491 34.7013 34.965 31.0854 34.965 26.6238C34.9616 24.3304 33.9838 22.146 32.2741 20.6156L32.2742 20.6157Z"
          fill="url(#paint0_linear)"/>
    <path opacity="0.3"
          d="M21.4678 20.7057C19.8315 22.2223 18.9001 24.3518 18.8974 26.5826C18.8974 31.0148 22.4907 34.608 26.9229 34.608C29.194 34.6048 31.3572 33.6391 32.8766 31.9511L21.4678 20.7057Z"
          fill="url(#paint1_linear)"/>
    <path opacity="0.3"
          d="M33.8034 20.1866C33.5476 20.1866 33.2942 20.237 33.0578 20.3349C32.8214 20.4328 32.6066 20.5763 32.4257 20.7573C32.2448 20.9382 32.1013 21.153 32.0033 21.3894C31.9054 21.6258 31.8551 21.8791 31.8551 22.135C31.8551 22.3909 31.9055 22.6442 32.0034 22.8806C32.1013 23.117 32.2448 23.3317 32.4257 23.5127C32.6067 23.6936 32.8215 23.8371 33.0578 23.935C33.2942 24.0329 33.5476 24.0832 33.8034 24.0832C34.0593 24.0832 34.3126 24.0329 34.549 23.935C34.7854 23.8371 35.0002 23.6936 35.1811 23.5127C35.362 23.3317 35.5056 23.117 35.6035 22.8806C35.7014 22.6442 35.7518 22.3909 35.7518 22.135C35.7518 21.8791 35.7014 21.6258 35.6035 21.3894C35.5056 21.153 35.3621 20.9382 35.1812 20.7573C35.0002 20.5763 34.7855 20.4328 34.5491 20.3349C34.3127 20.237 34.0593 20.1866 33.8034 20.1866ZM30.0862 23.5008C29.813 23.5008 29.5509 23.6093 29.3578 23.8025C29.1646 23.9957 29.0561 24.2577 29.0561 24.5309C29.0561 24.8041 29.1646 25.0661 29.3578 25.2592C29.5509 25.4524 29.813 25.561 30.0862 25.561C30.3594 25.561 30.6214 25.4524 30.8145 25.2593C31.0077 25.0661 31.1163 24.8041 31.1163 24.5309C31.1163 24.2577 31.0077 23.9956 30.8145 23.8025C30.6214 23.6093 30.3594 23.5008 30.0862 23.5008Z"
          fill="white"/>
    <path opacity="0.2"
          d="M27 14.2411C15.7992 14.2411 6.20856 19.4037 2.32731 26.6954C2.18542 26.9621 2.17894 27.2567 2.30424 27.5267C2.31202 27.5099 2.31849 27.4929 2.32731 27.4764C6.20786 20.1844 15.7978 15.0221 27 15.0221C38.2022 15.0221 47.7914 20.1847 51.6726 27.4764C51.6814 27.4929 51.6879 27.5099 51.6957 27.5267C51.821 27.2567 51.8146 26.9622 51.6726 26.6954C47.7919 19.4037 38.2022 14.2411 27 14.2411Z"
          fill="#F1CACA"/>
    <path d="M26.6695 19.703V27.3029H19.0696V27.9629H26.6695V35.5629H27.3295V27.9629H34.9295V27.3029H27.3295V19.703H26.6695Z"
          fill="black"/>
    <path d="M26.6699 19.0698V26.6698H19.0699V27.3298H26.6699V34.9298H27.3299V27.3298H34.9299V26.6698H27.3299V19.0698H26.6699Z"
          fill="#80C6ED"/>
    <defs>
        <linearGradient id="paint0_linear" x1="33.6584" y1="32.7922" x2="26.8696" y2="26.1004"
                        gradientUnits="userSpaceOnUse">
            <stop stop-opacity="0"/>
            <stop offset="1"/>
        </linearGradient>
        <linearGradient id="paint1_linear" x1="20.2541" y1="32.8082" x2="26.9027" y2="26.0631"
                        gradientUnits="userSpaceOnUse">
            <stop stop-opacity="0"/>
            <stop offset="1"/>
        </linearGradient>
    </defs>
</svg>
