<svg width="32" height="32" viewBox="0 0 60 60" fill="none" xmlns="http://www.w3.org/2000/svg">
<path d="M42.1219 44.6883C49.2179 44.6883 54.9703 38.9359 54.9703 31.8399C54.9703 24.7439 49.2179 18.9915 42.1219 18.9915C35.0259 18.9915 29.2734 24.7439 29.2734 31.8399C29.2734 38.9359 35.0259 44.6883 42.1219 44.6883Z" fill="#0CA15E"/>
<path d="M17.877 56.536C24.973 56.536 30.7254 50.7835 30.7254 43.6875C30.7254 36.5916 24.973 30.8391 17.877 30.8391C10.781 30.8391 5.02856 36.5916 5.02856 43.6875C5.02856 50.7835 10.781 56.536 17.877 56.536Z" fill="#D41919"/>
<path d="M19.138 28.2704C26.234 28.2704 31.9864 22.5179 31.9864 15.4219C31.9864 8.32593 26.234 2.57349 19.138 2.57349C12.042 2.57349 6.28955 8.32593 6.28955 15.4219C6.28955 22.5179 12.042 28.2704 19.138 28.2704Z" fill="#265AB1"/>
<path d="M20.2359 26.6871C25.1987 26.6871 29.2219 22.6639 29.2219 17.7011C29.2219 12.7384 25.1987 8.71521 20.2359 8.71521C15.2731 8.71521 11.25 12.7384 11.25 17.7011C11.25 22.6639 15.2731 26.6871 20.2359 26.6871Z" fill="#1B3F7C"/>
<path d="M39.6048 40.5212C44.5676 40.5212 48.5908 36.4981 48.5908 31.5353C48.5908 26.5725 44.5676 22.5493 39.6048 22.5493C34.642 22.5493 30.6189 26.5725 30.6189 31.5353C30.6189 36.4981 34.642 40.5212 39.6048 40.5212Z" fill="#087142"/>
<path d="M19.1766 50.5043C24.1394 50.5043 28.1625 46.4812 28.1625 41.5184C28.1625 36.5556 24.1394 32.5325 19.1766 32.5325C14.2138 32.5325 10.1907 36.5556 10.1907 41.5184C10.1907 46.4812 14.2138 50.5043 19.1766 50.5043Z" fill="#951212"/>
<path opacity="0.2" d="M19.1378 2.64453C15.7302 2.64453 12.4621 3.9982 10.0526 6.40775C7.64303 8.8173 6.28936 12.0854 6.28936 15.493C6.29427 15.6462 6.30193 15.7993 6.31233 15.9523C6.47907 12.6627 7.9028 9.56277 10.2895 7.29276C12.6762 5.02275 15.8435 3.75604 19.1373 3.75425C22.4626 3.75818 25.6568 5.05114 28.0485 7.36134C30.4402 9.67154 31.8431 12.819 31.9623 16.1421C31.9755 15.926 31.9831 15.7096 31.9853 15.4931C31.9853 12.0855 30.6316 8.81748 28.2221 6.40793C25.8125 3.99838 22.5445 2.64471 19.1369 2.64471L19.1378 2.64453ZM42.1241 19.0613C38.7165 19.0613 35.4485 20.415 33.0389 22.8245C30.6294 25.2341 29.2757 28.5021 29.2757 31.9098C29.2806 32.0635 29.2882 32.2172 29.2987 32.3706C29.4651 29.0808 30.8887 25.9806 33.2754 23.7103C35.6621 21.4401 38.8297 20.1732 42.1237 20.1714C45.4491 20.1753 48.6435 21.4685 51.0352 23.7789C53.427 26.0894 54.8298 29.2371 54.9487 32.5605C54.9618 32.3439 54.9695 32.127 54.9716 31.91C54.9716 28.5023 53.618 25.2343 51.2084 22.8247C48.7989 20.4152 45.5308 19.0615 42.1232 19.0615L42.1241 19.0613ZM17.8792 30.9113C14.4716 30.9113 11.2035 32.265 8.79398 34.6745C6.38443 37.0841 5.03076 40.3521 5.03076 43.7598C5.03566 43.9135 5.04332 44.0671 5.05374 44.2206C5.22018 40.9308 6.64379 37.8306 9.03051 35.5603C11.4172 33.2901 14.5847 32.0232 17.8787 32.0214C21.2042 32.0253 24.3986 33.3185 26.7903 35.6289C29.1821 37.9394 30.5848 41.0871 30.7037 44.4105C30.7169 44.1938 30.7246 43.9769 30.7267 43.7599C30.7267 40.3523 29.373 37.0843 26.9635 34.6747C24.5539 32.2652 21.2859 30.9115 17.8783 30.9115L17.8792 30.9113Z" fill="white"/>
</svg>
