<svg xmlns="http://www.w3.org/2000/svg" viewBox="0 0 452.98 483.81"><defs><style>.a{fill:url(#a);}.b,.d{fill:#fff;}.b,.c{isolation:isolate;}.b{opacity:0.2;}.c{opacity:0.3;}.d{stroke:#000;stroke-linecap:round;stroke-linejoin:round;stroke-width:20px;}</style><radialGradient id="a" cx="-314.12" cy="982.29" r="225" gradientTransform="matrix(0, 1.6, 1.6, 0, -1344.98, 740.93)" gradientUnits="userSpaceOnUse"><stop offset="0" stop-color="#49ade5"/><stop offset="1" stop-color="#21509f"/></radialGradient></defs><circle class="a" cx="226.49" cy="236.89" r="225"/><path class="b" d="M226.49,11.89c-124.27,0-225,100.74-225,225q.06,2.94.21,5.86C4,120.19,103.91,22,226.49,21.9c121.93.07,221.62,97.26,224.79,219.15.08-1.38.15-2.77.2-4.15,0-124.26-100.73-225-225-225Z"/><path class="c" d="M451.28,231C449,353.6,349.07,451.8,226.49,451.89,104.56,451.82,4.87,354.64,1.7,232.74c-.08,1.39-.15,2.77-.21,4.15,0,124.26,100.74,225,225,225h0c124.27,0,225-100.74,225-225q-.06-2.92-.2-5.85Z"/><path class="c" d="M212.18,10a10,10,0,0,0-3.4.78L6.11,96.45a10,10,0,0,0-2.32,17l93,73.77-16,9.68a10,10,0,0,0-.52,16.77L182,284.4l-39.87,22.7a10,10,0,0,0,.24,17.51l295.81,158c9.22,4.92,18.86-5.81,13-14.45L350.66,320.47l29-9.32a10,10,0,0,0,4.86-15.63l-77.14-99.95,21.78-7.42a10,10,0,0,0,4.92-15.27L220.81,14.17A10,10,0,0,0,212.17,10Z"/><path class="d" d="M147.14,305.81,443,463.77l-108-158.71,41.73-13.41L291,180.63l35-11.92L212.71,10,10,95.69,114.36,178.4,86,195.53l114.75,79.73Z"/></svg>