<svg width="20" height="20" viewBox="0 0 20 20" fill="none" xmlns="http://www.w3.org/2000/svg">
<path id="linkedin" fill-rule="evenodd" clip-rule="evenodd" d="M17.043 17.0421H14.0778V12.4003C14.0778 11.2932 14.0582 9.86953 12.5363 9.86953C10.9926 9.86953 10.7571 11.0762 10.7571 12.321V17.0421H7.79188V7.49768H10.6371V8.80287H10.6778C11.0737 8.05212 12.0415 7.26101 13.4845 7.26101C16.4886 7.26101 17.043 9.23731 17.043 11.8073V17.0421ZM4.44929 6.19373C3.49855 6.19373 2.73003 5.42299 2.73003 4.4741C2.73003 3.5241 3.49855 2.75336 4.44929 2.75336C5.39744 2.75336 6.16818 3.5241 6.16818 4.4741C6.16818 5.42299 5.39744 6.19373 4.44929 6.19373ZM2.96387 17.0423H5.93127V7.49783H2.96387V17.0423ZM18.52 0H1.47593C0.661852 0 0 0.645926 0 1.44222V18.557C0 19.3533 0.661852 20 1.47593 20H18.52C19.3359 20 19.9993 19.3533 19.9993 18.557V1.44222C19.9993 0.645926 19.3359 0 18.52 0Z" fill="white"/>
</svg>
