<svg width="32" height="32" viewBox="0 0 48 48" fill="none" xmlns="http://www.w3.org/2000/svg">
<path d="M7.64844 4.17741V28.4013C7.64844 31.8636 11.074 36.6461 14.5776 38.9991L24.1184 45.4067L33.5607 38.9991C37.0532 36.6291 40.4898 31.8634 40.4898 28.4013V4.17741C29.6384 0.96782 18.6845 1.19264 7.64844 4.17741Z" fill="#265AB1"/>
<path opacity="0.3" d="M10.1003 7.89038V28.2926C10.1003 31.2087 14.1038 35.3858 15.9367 37.2187V16.5709L21.3316 21.4265V30.0582H26.5303V21.4265L31.9252 16.5709V37.2187C33.7579 35.3859 37.7615 31.2087 37.7615 28.2926V7.89038H32.2192L23.9309 15.7864L15.6423 7.89038H10.1003Z" fill="black"/>
<path d="M10.1003 6.92456V27.3268C10.1003 30.2429 14.1038 34.42 15.9367 36.2529V15.6051L21.3316 20.4607V29.0924H26.5303V20.4607L31.9252 15.6051V36.2529C33.7579 34.4201 37.7615 30.2428 37.7615 27.3268V6.92456H32.2192L23.9309 14.8206L15.6423 6.92456H10.1003Z" fill="white"/>
<path opacity="0.2" d="M24.0003 1.85461C23.9936 1.85465 23.9869 1.85477 23.9802 1.8548V45.4081L33.4222 39.0005C36.9146 36.6305 40.3513 31.8652 40.3513 28.4031V4.17916C34.9259 2.57436 29.4743 1.82827 23.9997 1.85633L24.0003 1.85461Z" fill="black"/>
</svg>
