<svg width="32" height="32" viewBox="0 0 24 24" xmlns="http://www.w3.org/2000/svg">
<path d="M23 0.5H13.5C13.225 0.5 13 0.725 13 1V10.5C13 10.775 13.225 11 13.5 11H23C23.275 11 23.5 10.775 23.5 10.5V1C23.5 0.725 23.275 0.5 23 0.5ZM23 13H13.5C13.225 13 13 13.225 13 13.5V23C13 23.275 13.225 23.5 13.5 23.5H23C23.275 23.5 23.5 23.275 23.5 23V13.5C23.5 13.225 23.275 13 23 13ZM10.5 0.5H1C0.725 0.5 0.5 0.725 0.5 1V10.5C0.5 10.775 0.725 11 1 11H10.5C10.775 11 11 10.775 11 10.5V1C11 0.725 10.775 0.5 10.5 0.5ZM10.5 13H1C0.725 13 0.5 13.225 0.5 13.5V23C0.5 23.275 0.725 23.5 1 23.5H10.5C10.775 23.5 11 23.275 11 23V13.5C11 13.225 10.775 13 10.5 13Z" />
</svg>
