<svg width="160" height="160" viewBox="0 0 160 160" fill="none" xmlns="http://www.w3.org/2000/svg">
<g clip-path="url(#clip0_942_33)">
<path d="M45.4002 38.4673L44.8387 56.4361L52.4193 46.0479L62.8075 54.19L72.0727 73.0011L84.707 76.9318L85.5493 129.715L91.726 102.762L99.3066 117.642L99.8681 85.6355L115.029 94.6199L81.0571 44.9248L56.6307 35.9404L45.4002 38.4673Z" fill="white" stroke="#55DDFF" stroke-opacity="0.941176" stroke-width="0.147"/>
<path d="M154.841 79.9204C154.841 99.7426 146.985 118.757 132.995 132.799C119.004 146.841 100.019 154.767 80.1969 154.84C60.3748 154.913 41.3316 147.128 27.2378 133.19C13.144 119.251 5.14838 100.295 5.00204 80.4735C4.8557 60.6518 12.5706 41.58 26.457 27.4348C40.3435 13.2897 59.2697 5.22411 79.0907 5.0046C98.9116 4.78509 118.012 12.4295 132.208 26.2637C146.404 40.0978 154.54 58.9941 154.832 78.8142" stroke="white" stroke-width="9.932" stroke-linecap="round"/>
<path d="M76.9114 121.555C76.8116 120.827 76.3681 118.929 76.004 117.672C75.1 114.549 73.6375 111.657 72.167 110.083C71.8242 109.716 71.0294 109.028 70.4009 108.553C68.6073 107.197 67.5647 106.304 66.0543 104.828C61.405 100.285 57.5635 94.4395 55.0315 88.0557C54.4693 86.6385 53.7514 84.5196 53.8126 84.4584C53.8365 84.4345 53.9102 84.5822 53.9763 84.7865C54.4012 86.1003 55.6699 88.7946 56.7411 90.6581C60.4102 97.041 65.2175 102.351 72.181 107.714C73.6844 108.872 74.6743 109.937 75.9171 111.735C76.2866 112.27 76.6025 112.724 76.6192 112.745C76.7488 112.908 77.6679 111.261 78.2056 109.902C79.5297 106.557 80.085 103.232 79.8588 100.003C79.3067 92.123 74.3316 85.6473 65.1189 80.8171C63.3941 79.9127 61.6017 79.1121 59.2295 78.1862C56.9344 77.2904 55.5375 76.6088 54.1348 75.7001C52.9093 74.9063 51.2181 73.6364 50.3421 72.8521C49.9781 72.5263 49.6415 72.2598 49.5942 72.2598C49.3168 72.2598 47.1918 76.4202 46.4527 78.4104C45.4179 81.1967 44.6944 84.1688 44.3805 86.9221C44.0234 90.0552 44.2496 94.2558 44.9122 96.7984C45.9197 100.664 48.1756 104.66 50.998 107.577C54.8407 111.55 59.4835 113.711 65.273 114.224C66.5324 114.335 69.8202 114.297 70.9687 114.157L71.4645 114.096L72.1071 115.365C72.7883 116.709 73.3453 118.317 73.6779 119.898L73.88 120.859L75.0481 121.269C75.6906 121.495 76.3865 121.752 76.5946 121.842L76.973 122.004L76.9114 121.555Z" fill="white"/>
</g>
<defs>
<clipPath id="clip0_942_33">
<rect width="159.841" height="159.841" fill="white"/>
</clipPath>
</defs>
</svg>
