<svg xmlns="http://www.w3.org/2000/svg" viewBox="0 0 338.97 313.45"><defs></defs><g id="Livello_2" data-name="Livello 2"><g id="Livello_1-2" data-name="Livello 1"><g id="logo_art" data-name="logo art"><path class="cls-1" d="M338,175.58l-18-55.59s0,.05,0,.08a.29.29,0,0,0,0-.09h0L284.08,9.66A14.11,14.11,0,0,0,270.55,0a13.93,13.93,0,0,0-13.37,9.75l-34,104.7H115.86L81.78,9.74A13.92,13.92,0,0,0,68.42,0h-.07A14.21,14.21,0,0,0,54.86,9.75L19.13,120v0h0s0,.06,0,.08,0,0,0-.07L1,175.58a20.27,20.27,0,0,0,7.36,22.7L164.78,311.92l.07.05.2.14-.19-.13h0l0,0,0,0h0a7.25,7.25,0,0,0,.75.47l.1.06h0l.06,0,.05,0h0l.09,0c.13.07.28.12.42.18l.39.16h0l.06,0,.08,0h0l.1,0h.05a5.27,5.27,0,0,0,.57.14l.23.05h0l.08,0,.12,0h.12a8.34,8.34,0,0,0,1.13.09h0a8.32,8.32,0,0,0,1.12-.09h.13l.12,0,.07,0h0l.23-.05c.19,0,.38-.08.57-.14h0l.11,0h0l.09,0,.06,0h0l.41-.17.39-.16.09,0,0,0,.05,0,.07,0h0l.11-.07A7.17,7.17,0,0,0,174,312l.06,0h0l.08-.05L330.61,198.27A20.25,20.25,0,0,0,338,175.58ZM270.64,20l30.68,94.45H240ZM296,130.43l-12.52,16L191.1,264.77l43.68-134.34ZM161.88,307.93h0l0,.07Zm-14-43.15L43.07,130.43h61.18ZM68.33,20l30.73,94.45H37.7ZM17.75,185.36a4.33,4.33,0,0,1-1.56-4.84l13.47-41.33L128.33,265.7ZM164.5,311.71l-.09-.07,0,0a1.29,1.29,0,0,1-.17-.16c-.12-.09-.23-.2-.34-.3l0,0,0,0a8.42,8.42,0,0,0,.72.62h0l0,0Zm5-32.09-25.67-79.06-22.76-70.13H218Zm5.25,31.84-.18.16,0,0-.09.07a1.66,1.66,0,0,1-.21.16l0,0h0a6.91,6.91,0,0,0,.71-.61l0,0s0,0,0,0ZM321.22,185.35,210.66,265.67l98.7-126.47,13.41,41.31A4.3,4.3,0,0,1,321.22,185.35Z"/></g></g></g></svg>