<svg width="32" height="32" viewBox="0 0 22 24" xmlns="http://www.w3.org/2000/svg">
<path d="M8.23988 13.32C8.37322 13.32 11.4665 13.4533 13.3065 13H13.3199C15.4399 12.48 18.3866 10.9867 19.1466 6.10667C19.1466 6.10667 20.8399 0 12.4399 0H5.22655C4.57322 0 4.01322 0.48 3.90655 1.12L0.839883 20.5333C0.773216 20.9333 1.09322 21.3067 1.49322 21.3067H6.06655L7.18655 14.2133C7.26655 13.7067 7.70655 13.32 8.23988 13.32Z" />
<path d="M20.3194 7.05347C19.2394 12.0268 15.8394 14.6535 10.4261 14.6535H8.46608L7.09275 23.3468C7.03942 23.6935 7.30608 24.0001 7.65275 24.0001H10.1861C10.6394 24.0001 11.0394 23.6668 11.1061 23.2135C11.2127 22.6801 11.7994 18.7868 11.9194 18.1201C11.9861 17.6668 12.3861 17.3335 12.8394 17.3335H13.4261C17.1861 17.3335 20.1327 15.8001 20.9994 11.3868C21.3461 9.60013 21.1594 8.13347 20.3194 7.05347Z" />
</svg>
