<svg width="32" height="32" viewBox="0 0 24 24" xmlns="http://www.w3.org/2000/svg">
<path d="M4 0H0V4C2.21333 4 4 2.21333 4 0ZM14.6667 0H12C12 6.62667 6.62667 12 0 12V14.6667C8.10667 14.6667 14.6667 8.09333 14.6667 0ZM9.33333 0H6.66667C6.66667 3.68 3.68 6.66667 0 6.66667V9.33333C5.16 9.33333 9.33333 5.16 9.33333 0ZM9.33333 24H12C12 17.3733 17.3733 12 24 12V9.33333C15.9067 9.33333 9.33333 15.9067 9.33333 24ZM20 24H24V20C21.7867 20 20 21.7867 20 24ZM14.6667 24H17.3333C17.3333 20.32 20.32 17.3333 24 17.3333V14.6667C18.84 14.6667 14.6667 18.84 14.6667 24Z" />
</svg>
