<svg width="32" height="32" viewBox="0 0 29 22" xmlns="http://www.w3.org/2000/svg">
<path d="M23.6933 2.10659C21.92 1.27992 20 0.679919 18 0.333252C17.96 0.333252 17.9333 0.346586 17.9067 0.373252C17.6667 0.813252 17.3867 1.38658 17.2 1.82659C15.0533 1.50659 12.9067 1.50659 10.8 1.82659C10.6133 1.37325 10.3333 0.813252 10.08 0.373252C10.0667 0.346586 10.0267 0.333252 9.98666 0.333252C7.98666 0.679919 6.07999 1.27992 4.29333 2.10659C4.27999 2.10659 4.26666 2.11992 4.25333 2.13325C0.62666 7.55992 -0.37334 12.8399 0.119994 18.0666C0.119994 18.0933 0.133327 18.1199 0.159993 18.1333C2.55999 19.8933 4.86666 20.9599 7.14666 21.6666C7.18666 21.6799 7.22666 21.6666 7.23999 21.6399C7.77333 20.9066 8.25333 20.1333 8.66666 19.3199C8.69333 19.2666 8.66666 19.2133 8.61333 19.1999C7.85333 18.9066 7.13333 18.5599 6.42666 18.1599C6.37333 18.1333 6.37333 18.0533 6.41333 18.0133C6.55999 17.9066 6.70666 17.7866 6.85333 17.6799C6.87999 17.6533 6.91999 17.6533 6.94666 17.6666C11.5333 19.7599 16.48 19.7599 21.0133 17.6666C21.04 17.6533 21.08 17.6533 21.1067 17.6799C21.2533 17.7999 21.4 17.9066 21.5467 18.0266C21.6 18.0666 21.6 18.1466 21.5333 18.1733C20.84 18.5866 20.1067 18.9199 19.3467 19.2133C19.2933 19.2266 19.28 19.2933 19.2933 19.3333C19.72 20.1466 20.2 20.9199 20.72 21.6532C20.76 21.6666 20.8 21.6799 20.84 21.6666C23.1333 20.9599 25.44 19.8933 27.84 18.1333C27.8667 18.1199 27.88 18.0933 27.88 18.0666C28.4667 12.0266 26.9067 6.78658 23.7467 2.13325C23.7333 2.11992 23.72 2.10659 23.6933 2.10659ZM9.35999 14.8799C7.98666 14.8799 6.83999 13.6133 6.83999 12.0533C6.83999 10.4933 7.95999 9.22658 9.35999 9.22658C10.7733 9.22658 11.8933 10.5066 11.88 12.0533C11.88 13.6133 10.76 14.8799 9.35999 14.8799ZM18.6533 14.8799C17.28 14.8799 16.1333 13.6133 16.1333 12.0533C16.1333 10.4933 17.2533 9.22658 18.6533 9.22658C20.0667 9.22658 21.1867 10.5066 21.1733 12.0533C21.1733 13.6133 20.0667 14.8799 18.6533 14.8799Z" />
</svg>
