<svg width="33" height="32" viewBox="0 0 33 32" xmlns="http://www.w3.org/2000/svg">
<path fill-rule="evenodd" clip-rule="evenodd" d="M7.06706 0H25.7337C29.4164 0 32.4004 2.98533 32.4004 6.66667V25.3333C32.4004 29.0147 29.4164 32 25.7337 32H7.06706C3.38572 32 0.400391 29.0147 0.400391 25.3333V6.66667C0.400391 2.98533 3.38572 0 7.06706 0ZM19.1684 9.33333H21.7337V5.33333H18.3484C15.1524 5.33333 13.7337 6.74 13.7337 9.436V12H11.0671V16H13.7337V26.6667H17.7337V16H21.4164L21.7337 12H17.7337V10.5187C17.7337 9.66933 18.3484 9.33333 19.1684 9.33333Z" />
</svg>
