<svg width="32" height="32" viewBox="0 0 29 32" xmlns="http://www.w3.org/2000/svg">
<path fill-rule="evenodd" clip-rule="evenodd" d="M25.5037 22.3007C25.5037 22.5049 25.3677 22.7083 25.2317 22.7755L16.459 27.7951C16.187 27.9308 15.847 27.8623 15.711 27.5917C15.643 27.5232 15.643 27.3875 15.643 27.3197V17.2824C15.643 17.079 15.779 16.8748 15.915 16.807L24.6877 11.7202C24.9597 11.5845 25.2997 11.6524 25.4357 11.9237C25.5037 11.9915 25.5037 12.1271 25.5037 12.1956V22.3007ZM12.5808 27.3875C12.5808 27.7266 12.3087 27.9308 12.0367 27.9308C11.9687 27.9308 11.8327 27.9308 11.7647 27.8623L2.99201 22.844C2.78799 22.7755 2.71999 22.572 2.71999 22.3692V12.1956C2.71999 11.8565 2.99201 11.6524 3.26403 11.6524C3.33204 11.6524 3.46805 11.6524 3.53605 11.7202L12.3087 16.7398C12.5127 16.807 12.5808 17.0105 12.5808 17.2139V27.3875ZM5.03261 8.12626L13.8053 3.03947C14.0093 2.97097 14.2133 2.97097 14.3493 3.03947L23.122 8.12626C23.394 8.26123 23.462 8.60035 23.326 8.87165L23.122 9.07512L14.3493 14.1619C14.1453 14.2304 13.9413 14.2304 13.8053 14.1619L5.03261 9.07512C4.76059 8.93947 4.69258 8.60035 4.82859 8.32905L5.03261 8.12626ZM28.2222 8.66822C28.2222 8.3291 28.0862 7.98998 27.8822 7.78719H27.8141L27.7461 7.71868L27.6781 7.65086H27.6101L14.6891 0.190228L14.6211 0.122404C14.2811 -0.0810677 13.8051 -0.0125656 13.465 0.190228L0.544042 7.58303H0.476037L0.408032 7.65086L0.340026 7.71868L0.272021 7.78719C0.0680053 7.98998 0 8.26127 0 8.60039V8.66822V23.5223C0 23.9286 0.272021 24.3355 0.612047 24.5397L13.533 31.9318C13.533 31.9318 13.6011 31.9318 13.6011 32.0003H13.6691H13.7371H13.8051H13.8731H13.9411H14.2131H14.2811H14.3491H14.4171H14.4851H14.5531C14.5531 32.0003 14.6211 32.0003 14.6211 31.9318L27.5421 24.5397C27.9502 24.3355 28.1542 23.9286 28.1542 23.5223L28.2222 8.66822Z" />
</svg>
