<svg width="33" height="32" viewBox="0 0 33 32" xmlns="http://www.w3.org/2000/svg">
<path fill-rule="evenodd" clip-rule="evenodd" d="M7.26628 0H25.9329C29.6156 0 32.5996 2.98533 32.5996 6.66667V25.3333C32.5996 29.0147 29.6156 32 25.9329 32H7.26628C3.58494 32 0.599609 29.0147 0.599609 25.3333V6.66667C0.599609 2.98533 3.58494 0 7.26628 0ZM7.26628 25.3333H11.2663V10.6667H7.26628V25.3333ZM9.26628 8.976C7.97828 8.976 6.93294 7.92267 6.93294 6.624C6.93294 5.32533 7.97828 4.272 9.26628 4.272C10.5543 4.272 11.5996 5.32533 11.5996 6.624C11.5996 7.92267 10.5556 8.976 9.26628 8.976ZM23.2663 25.3333H27.2663V16.3213C27.2663 9.31733 19.7943 9.572 17.9329 13.02V10.6667H13.9329V25.3333H17.9329V17.8613C17.9329 13.7107 23.2663 13.3707 23.2663 17.8613V25.3333Z" />
</svg>
