<svg width="33" height="32" viewBox="0 0 33 32" xmlns="http://www.w3.org/2000/svg">
<path d="M6.86589 0H25.5326C29.2152 0 32.1992 2.98533 32.1992 6.66667V25.3333C32.1992 29.0147 29.2152 32 25.5326 32H6.86589C3.18455 32 0.199219 29.0147 0.199219 25.3333V6.66667C0.199219 2.98533 3.18455 0 6.86589 0ZM12.9072 25.336C21.0352 25.336 25.6259 18.472 25.3472 12.316C26.2046 11.6987 26.9472 10.928 27.5326 10.0533C26.7486 10.4013 25.9046 10.636 25.0192 10.7427C25.9219 10.2013 26.6152 9.344 26.9432 8.32133C26.0966 8.82267 25.1592 9.18667 24.1619 9.38267C23.3646 8.53067 22.2259 8 20.9686 8C18.1432 8 16.0646 10.636 16.7032 13.3733C13.0659 13.1907 9.84055 11.448 7.68189 8.8C6.53655 10.768 7.08855 13.3413 9.03655 14.644C8.32055 14.6213 7.64455 14.424 7.05522 14.096C7.00855 16.124 8.46055 18.02 10.5659 18.4427C9.95122 18.6093 9.27655 18.648 8.58989 18.5173C9.14589 20.256 10.7619 21.5213 12.6779 21.5573C10.8379 22.9987 8.52055 23.6427 6.19789 23.3693C8.13522 24.612 10.4352 25.336 12.9072 25.336Z"/>
</svg>
