<svg width="32" height="32" viewBox="0 0 32 32" xmlns="http://www.w3.org/2000/svg">
<path fill-rule="evenodd" clip-rule="evenodd" d="M25.3333 0H6.66667C2.98533 0 0 2.98533 0 6.66667V25.3333C0 29.0147 2.98533 32 6.66667 32H25.3333C29.016 32 32 29.0147 32 25.3333V6.66667C32 2.98533 29.016 0 25.3333 0ZM13.2933 24.656L16 21.9493H21.0947L24.2787 18.7653V8.57733H8.99467V21.9507H13.2933V24.656ZM19.184 12.2387H21.0947V17.8053H19.184V12.2387ZM16 12.2387H14.0893V17.8053H16V12.2387ZM20.6173 25.2933L26.1893 19.7213V6.66667H7.244L5.81067 10.328V25.2933H10.9053V28H13.7707L16.4787 25.2933H20.6173Z"/>
</svg>
