<svg width="33" height="32" viewBox="0 0 33 32" xmlns="http://www.w3.org/2000/svg">
<path fill-rule="evenodd" clip-rule="evenodd" d="M32.8008 25.3333V6.66667C32.8008 2.98533 29.8168 0 26.1341 0H7.46745C3.78611 0 0.800781 2.98533 0.800781 6.66667V25.3333C0.800781 29.0147 3.78611 32 7.46745 32H26.1341C29.8168 32 32.8008 29.0147 32.8008 25.3333ZM16.6021 12C16.6021 12.3307 16.4354 12.5747 16.1301 12.5747C15.8194 12.5747 15.6381 12.32 15.6368 12V9.17467C15.6368 8.84267 15.7914 8.596 16.1074 8.596C16.4541 8.596 16.6021 8.83467 16.6021 9.17467V12ZM11.9208 18.0267H13.1728H13.1741V16.888H9.45678V18.0267H10.7101V24.7293H11.9208V18.0267ZM20.3661 23.5293V20.3213C20.3661 19.5373 20.1061 18.872 19.3194 18.872C18.9341 18.872 18.6061 19.116 18.3621 19.412V16.888H17.2781V24.728H18.3621V24.284C18.6634 24.6573 18.9901 24.8013 19.3848 24.8013C20.0994 24.8013 20.3661 24.2453 20.3661 23.5293ZM19.2594 20.3867C19.2594 20.192 19.2234 20.044 19.1448 19.9427C19.0141 19.7707 18.7728 19.752 18.5848 19.848L18.3621 20.024V23.628L18.6154 23.832C18.7914 23.92 19.0474 23.9267 19.1661 23.772C19.2274 23.6907 19.2581 23.5573 19.2581 23.3733V20.3867H19.2594ZM15.1528 23.3347C15.0208 23.4987 14.7301 23.768 14.5194 23.768C14.2901 23.768 14.2328 23.6107 14.2328 23.3787V18.9453H13.1594V23.78C13.1594 24.9533 13.9554 24.96 14.5341 24.628C14.7474 24.5053 14.9541 24.3253 15.1528 24.0907V24.7293H16.2288V18.9453H15.1528V23.3347ZM18.7128 12.5693C18.7128 13.1693 18.8954 13.6533 19.5021 13.6533C19.8434 13.6533 20.3168 13.476 20.8074 12.8947V13.5653H21.9368V7.49333H20.8074V12.1027C20.6688 12.2747 20.3634 12.5573 20.1434 12.5573C19.9008 12.5573 19.8421 12.392 19.8421 12.148V7.49333H18.7128V12.5693ZM14.4768 12.052V9.07467C14.4768 8.1 15.1368 7.44267 16.1301 7.44267C17.0461 7.44267 17.7541 8.124 17.7541 9.07467V12.052C17.7541 13.0707 17.0394 13.6787 16.1301 13.6787C15.0354 13.6787 14.4768 13.1227 14.4768 12.052ZM10.2701 5.33333L11.7834 10.2267V13.5653H13.0541V10.2267L14.5341 5.33333H13.2421L12.4274 8.624L11.5501 5.33333H10.2701ZM22.8741 15.2293C25.3794 15.4013 25.6701 16.9187 25.6888 20.8893C25.6701 24.8667 25.3768 26.3773 22.8741 26.5493C20.5621 26.7067 13.0381 26.7067 10.7288 26.5493C8.22478 26.3787 7.93278 24.86 7.91411 20.8893C7.93145 16.912 8.22745 15.4 10.7288 15.2293C13.0381 15.072 20.5621 15.072 22.8741 15.2293ZM24.3408 20.5V21.972H22.2848V23.0627C22.2848 23.496 22.3208 23.872 22.7541 23.872C23.2074 23.872 23.2341 23.5667 23.2341 23.0627V22.6613H24.3408V23.096C24.3408 24.2107 23.8634 24.8853 22.7301 24.8853C21.7021 24.8853 21.1781 24.1373 21.1781 23.096V20.5C21.1781 19.496 21.8408 18.8 22.8114 18.8C23.8421 18.7987 24.3408 19.4547 24.3408 20.5ZM22.7634 19.812C23.1514 19.812 23.2341 20.0987 23.2341 20.4893V21.0747H22.2848V20.4893C22.2848 20.092 22.3648 19.812 22.7634 19.812Z" />
</svg>
