<svg xmlns="http://www.w3.org/2000/svg" height="800" width="1200" viewBox="-33.4089 -21.975 289.5438 131.85"><path d="M90.1 26.8l5.8-1.4v28c0 3.1.9 4.9 2.7 5.5-.9 1.7-2.4 2.6-4.6 2.6-2.6 0-4-1.8-4-5.5V26.8zM104.7 61V40.8h-3.2V36h9.1v25zm3-34.6c.9 0 1.7.3 2.4 1s1 1.5 1 2.4c0 .9-.3 1.7-1 2.4s-1.5 1-2.4 1c-.9 0-1.7-.3-2.4-1s-1-1.5-1-2.4c0-.9.3-1.7 1-2.4s1.5-1 2.4-1zM133.4 61V46.6c0-2.1-.4-3.7-1.2-4.6-.8-1-2.1-1.5-4-1.5-.9 0-1.8.2-2.7.7-1 .5-1.7 1.1-2.3 1.8v18h-5.8V36.1h4.2l1.1 2.3c1.6-1.9 3.9-2.8 7-2.8 3 0 5.3.9 7 2.7 1.7 1.8 2.6 4.3 2.6 7.4V61zm10.4-12.5c0-3.8 1.1-6.9 3.3-9.3 2.2-2.4 5.1-3.6 8.7-3.6 3.8 0 6.7 1.1 8.8 3.4 2.1 2.3 3.1 5.4 3.1 9.4s-1.1 7.1-3.2 9.5c-2.1 2.3-5 3.5-8.8 3.5-3.8 0-6.7-1.2-8.8-3.5-2-2.4-3.1-5.5-3.1-9.4zm6.1 0c0 5.5 2 8.2 5.9 8.2 1.8 0 3.2-.7 4.3-2.1 1.1-1.4 1.6-3.5 1.6-6.1 0-5.4-2-8.1-5.9-8.1-1.8 0-3.3.7-4.3 2.1-1.1 1.4-1.6 3.4-1.6 6zM188.4 61v-1.5c-.5.5-1.3 1-2.4 1.4-1.1.4-2.3.6-3.6.6-3.5 0-6.2-1.1-8.2-3.3-2-2.2-3-5.3-3-9.2 0-3.9 1.1-7.1 3.4-9.6s5.1-3.7 8.6-3.7c1.9 0 3.6.4 5.2 1.2v-10l5.8-1.4V61zm0-19c-1.2-1-2.5-1.5-3.9-1.5-2.3 0-4.1.7-5.4 2.1-1.3 1.4-1.9 3.5-1.9 6.1 0 5.2 2.5 7.8 7.5 7.8.6 0 1.2-.2 2.1-.5.8-.3 1.3-.7 1.6-1zm33.9 8.3h-17.8c.1 2 .8 3.5 2 4.6 1.3 1.1 2.9 1.7 5.1 1.7 2.6 0 4.7-.7 6-2.1l2.3 4.4c-2 1.7-5.1 2.5-9.2 2.5-3.8 0-6.8-1.1-9-3.3-2.2-2.2-3.3-5.3-3.3-9.3 0-3.9 1.2-7.1 3.6-9.5 2.4-2.4 5.3-3.6 8.7-3.6 3.6 0 6.5 1.1 8.7 3.2 2.2 2.2 3.3 4.9 3.3 8.2.1.7-.1 1.7-.4 3.2zm-17.6-4.4h12.2c-.4-3.6-2.4-5.5-6-5.5-3.3.1-5.4 1.9-6.2 5.5z"/><path d="M62.2 46.4l-1 11.5-3.3-2.3.4-5.8v-.2l-.1-.1-.1-.1-7.1-4.7.1-5.1zM44.8 58.9L39.7 55v.9c0 .2-.1.4-.2.5L35.7 59l4.2 3.4.1.1v.2l.2 4 4.7 3.9zm-32.1 5l2.4 11.5L25 85.9l-1.7-11.6zm9.3 1.7l-2.4-16.1-12-10 3.2 15.6zm-3.8-26l-3.3-22.8L1.1 8.2l4.5 21.5z" fill="#004712"/><path d="M72 40.2l-1.5 10.9-8.2 6.6 1-11.2zM45.9 58.9l.1 11.8 10.5-8.4.7-11.5zm-6.8 4.8L24.3 74.3l1.8 12.2 13.4-10.7zm-.4-8l-.7-16-17.3 9.9 2.4 16.6zm-1.1-25.3l-.9-21.6-20.8 8L19.3 40z" fill="#00b259"/><path d="M73.2 39c0-.1 0-.1 0 0v-.2s0-.1-.1-.1c0 0-.1 0-.1-.1l-12-6.7c-.2-.1-.4-.1-.5 0l-10.2 6.2h-.1v.6l-.1 5.4-4.1-2.7c-.2-.1-.4-.1-.6 0l-6.1 3.4-.3-6v-.5h-.1l-6.2-4.1 5.8-3c.2-.1.3-.3.3-.5L37.7 8v-.1s0-.1-.1-.1c0 0 0-.1-.1-.1L21.8.1c-.1-.1-.2-.1-.3-.1L.2 6.6s-.1 0-.1.1c0 0-.1 0-.1.1v.6l4.7 22.9c0 .1.1.2.2.3l6.4 5-4.7 2.2s-.1 0-.1.1c0 0 0 .1-.1.1v.2L10 55.4c0 .1.1.2.2.3l4.5 4.2-3 1.8-.1.1s0 .1-.1.1v.3l2.8 13.3c0 .1.1.2.1.3l10.9 12h.1s.1 0 .1.1h.5l14.4-11.5c.1-.1.2-.3.2-.4l-.3-7.9 4.8 4s.1 0 .1.1h.5L57.3 63c.1-.1.2-.2.2-.4l.4-5.8 3.5 2.4h.4s.1 0 .1-.1l9.4-7.5c.1-.1.2-.2.2-.3L73.2 39c0 .1 0 .1 0 0zM62.3 57.7l1-11.2 8.8-6.3-1.5 10.9zm-4.4-2.1l.4-5.8v-.2l-.1-.1-.1-.1-7.1-4.7.1-5.1 11.1 6.9-1 11.5zm-1.5 6.7l-10.5 8.4-.1-11.8 11.3-8.1zM39.6 75.8L26.1 86.5l-1.8-12.2L39 63.8zM15 75.4l-2.4-11.5 10.7 10.4L25 85.9zm-.2-58.6l3.3 22.8-12.5-9.9L1.1 8.2zm21.9-8l.9 21.6L19.3 40l-3.4-23.2zm2 46.9L23.1 66.1l-2.4-16.6L38 39.6zm-19.1-6.1L22 65.7 10.8 55.1 7.6 39.5zm20.5 13.1v-.2l-.1-.1-4.2-3.4 3.8-2.6c.2-.1.2-.3.2-.5V55l5.1 3.9.1 11.8-4.7-3.9z"/></svg>