<svg xmlns="http://www.w3.org/2000/svg" viewBox="0 0 923.08 364.3"><defs><style>.cls-1{fill:#fff;}.cls-2{fill:#004712;}.cls-3{fill:#00b259;}</style></defs><g id="Livello_2" data-name="Livello 2"><g id="Livello_1-2" data-name="Livello 1"><path id="linode-text" class="cls-1" d="M373.41,111.07l24-5.8v116c0,12.85,3.73,20.31,11.19,22.8-3.73,7-9.94,10.77-19.06,10.77-10.78,0-16.58-7.46-16.58-22.79v-121Zm60.51,141.74V169.09H420.66V149.2h37.72V252.81Zm12.44-143.4a14.06,14.06,0,0,1,9.94,24,14.06,14.06,0,1,1-19.89-19.89A13.49,13.49,0,0,1,446.36,109.41Zm106.51,143.4V193.13c0-8.7-1.66-15.33-5-19.06-3.32-4.15-8.71-6.22-16.58-6.22a22.58,22.58,0,0,0-11.19,2.9,29.26,29.26,0,0,0-9.53,7.46v74.6h-24V149.61H504l4.55,9.54c6.64-7.88,16.17-11.61,29-11.61,12.43,0,22,3.73,29,11.19s10.77,17.82,10.77,30.67v63.41ZM596,201q0-23.62,13.68-38.55t36.06-14.92c15.74,0,27.76,4.56,36.47,14.09S695,184,695,200.59,690.47,230,681.76,240c-8.7,9.54-20.72,14.51-36.47,14.51s-27.77-5-36.47-14.51C600.53,230,596,217.17,596,201Zm25.28,0c0,22.79,8.29,34,24.46,34a21.43,21.43,0,0,0,17.82-8.7c4.56-5.81,6.63-14.51,6.63-25.28,0-22.38-8.29-33.57-24.45-33.57-7.46,0-13.68,2.9-17.83,8.7C623.33,181.94,621.25,190.23,621.25,201Zm159.56,51.8v-6.22a27.17,27.17,0,0,1-9.94,5.81A43.53,43.53,0,0,1,756,254.88c-14.51,0-25.7-4.56-34-13.67s-12.43-22-12.43-38.13,4.56-29.43,14.09-39.79S744.76,148,759.26,148a47,47,0,0,1,21.55,5V111.49l24-5.81V252.81Zm0-78.74a24.72,24.72,0,0,0-16.16-6.22q-14.29,0-22.38,8.7c-5.39,5.81-7.87,14.51-7.87,25.28q0,32.34,31.08,32.33c2.49,0,5-.83,8.7-2.07a18,18,0,0,0,6.63-4.15Zm140.5,34.4H847.54c.41,8.28,3.32,14.5,8.29,19.06,5.39,4.56,12,7.05,21.14,7.05,10.77,0,19.47-2.91,24.86-8.71l9.53,18.24c-8.28,7-21.13,10.36-38.12,10.36q-23.62,0-37.3-13.68t-13.68-38.54c0-16.16,5-29.43,14.92-39.37A49.11,49.11,0,0,1,873.24,148c14.92,0,26.93,4.56,36,13.26,9.12,9.12,13.68,20.31,13.68,34,.41,2.9-.42,7.05-1.66,13.27Zm-72.94-18.24h50.56c-1.66-14.92-9.95-22.79-24.87-22.79C860.39,167.85,851.68,175.31,848.37,190.23Z"/><path class="cls-2" d="M257.78,192.3,253.64,240,240,230.43l1.66-24v-.83l-.41-.41-.42-.41-29.42-19.48.41-21.14Zm-72.11,51.81-21.14-16.17v3.73a3.22,3.22,0,0,1-.82,2.08L148,244.52l17.4,14.09.42.42v.83l.83,16.57,19.48,16.17Zm-133,20.72,9.95,47.66,41,43.52-7-48.08Zm38.55,7.05-10-66.73L31.5,163.71l13.26,64.65ZM75.43,164.12,61.75,69.63,4.56,34l18.65,89.11Z"/><path class="cls-3" d="M298.4,166.61l-6.22,45.17-34,27.35,4.14-46.41Zm-108.17,77.5.41,48.9,43.52-34.81,2.9-47.66ZM162.05,264l-61.34,43.93,7.46,50.56,55.54-44.34Zm-1.66-33.15-2.9-66.32-71.7,41,9.95,68.8ZM155.83,126,152.1,36.47,65.9,69.63,80,165.78Z"/><path id="linode-block" d="M303.37,161.63h0v-.83a.4.4,0,0,0-.41-.41.41.41,0,0,1-.42-.41l-49.73-27.77a1.83,1.83,0,0,0-2.07,0L208.47,157.9h-.42v2.49l-.41,22.38-17-11.19a2.65,2.65,0,0,0-2.48,0l-25.28,14.09-1.25-24.87v-2.07h-.41l-25.7-17,24-12.43a2.29,2.29,0,0,0,1.24-2.08l-4.55-94.07v-.42a.4.4,0,0,0-.42-.41.41.41,0,0,0-.41-.42L90.35.41A1.54,1.54,0,0,0,89.11,0L.83,27.35a.41.41,0,0,0-.42.42.4.4,0,0,0-.41.41v2.49l19.48,94.91c0,.41.41.83.83,1.24l26.52,20.72-19.48,9.12a.4.4,0,0,0-.41.41.41.41,0,0,1-.42.42v.83L41.44,229.6c0,.42.42.83.83,1.25l18.65,17.4-12.43,7.46-.41.42a.4.4,0,0,1-.42.41v1.24l11.61,55.13c0,.41.41.82.41,1.24l45.17,49.73h.42a.4.4,0,0,1,.41.42h2.08l59.68-47.66a3.2,3.2,0,0,0,.82-1.66L167,282.24l19.89,16.57a.41.41,0,0,1,.42.42h2.07l48.08-38.13a2.16,2.16,0,0,0,.83-1.66l1.65-24,14.51,9.95h1.66a.4.4,0,0,0,.41-.41l39-31.09c.41-.41.83-.83.83-1.24l7-51Zm-45.17,77.5,4.14-46.41,36.47-26.11-6.21,45.17ZM240,230.43l1.66-24v-.83l-.41-.41-.42-.41-29.42-19.48.41-21.14,46,28.6-4.14,47.66Zm-6.21,27.77L190.23,293l-.41-48.9,46.83-33.57Zm-69.63,55.95-55.95,44.34-7.46-50.56,60.92-43.51ZM62.17,312.49l-10-47.66,44.35,43.1,7,48.08ZM61.34,69.63,75,164.12l-51.8-41L4.56,34ZM152.1,36.47,155.83,126,80,165.78,65.9,69.63Zm8.29,194.38L95.74,274l-9.95-68.8,71.7-41ZM81.23,205.56l10,66.73L44.76,228.36,31.5,163.71Zm85,54.3V259l-.41-.42-17.41-14.09,15.75-10.77c.83-.42.83-1.25.83-2.08v-3.73l21.14,16.17.41,48.9L167,276.85Z"/></g></g></svg>