<svg width="113" height="40" viewBox="0 0 113 40" xmlns="http://www.w3.org/2000/svg">
    <path d="M81.81 22.6h.008c.8-.098 1.588-.177 2.374-.256 1.509-.152 3.006-.302 4.55-.575.057-.01.114-.022.17-.033.311-.06.62-.12.912-.224.282-.1.506-.228.666-.399.012-.31.097-.589.28-.811.222-.27.524-.378.787-.415.457-.063.973.068 1.24.136l.055.014c.436.109.887.253 1.312.392l.138.045c.377.123.73.239 1.056.328 2.175.51 4.461.676 6.489.44 2.039-.236 3.762-.874 4.871-1.919l.117-.11.158-.021c1.253-.171 2.122-1.2 2.591-2.69.466-1.481.483-3.282.123-4.691l-.001-.004c-.894-3.61-3.722-6.565-7.461-8.265a17.702 17.702 0 00-12.699-.701l-.008.002-.01.003a5.547 5.547 0 00-.728.286l-.346.16c-.18.085-.369.173-.547.252-.607.269-1.334.546-2.025.503h-.005c-.629-.045-1.217-.397-1.69-.693l-.176-.11c-.44-.278-.802-.505-1.157-.607-1.128-.322-2.566-.33-4.178-.225-.65.042-1.339.103-2.04.165-.986.088-1.994.178-2.943.218M81.811 22.6L73.67 2.296M81.81 22.6c-1.117.153-2.235.338-3.35.524-1.997.331-3.983.661-5.937.795h-.014l-.014.002c-.192.024-.385.005-.64-.02l-.076-.007c-.262-.026-.608-.056-.952.04-.326.083-.64.256-.895.395l-.058.032c-.294.16-.53.281-.765.334-.867.192-1.967.315-3.143.447-.481.053-.975.108-1.471.17l-.01.002-.01.002c-.426.07-.855.154-1.272.237l-.094.019c-.386.076-.761.15-1.125.214-.794.138-1.482.213-2.033.152-.224-.025-.464-.115-.738-.262-.222-.118-.44-.259-.679-.412-.06-.04-.123-.08-.187-.12-.583-.372-1.333-.827-2.19-.737h0l-.01.001c-.412.052-.746.255-1.015.494-.265.236-.494.53-.693.804l-.212.298c-.122.173-.235.333-.358.489-.184.234-.343.394-.491.487-.341.197-.893.357-1.601.504-.447.093-.92.174-1.405.256-.284.049-.571.098-.861.15h0l-.009.002c-.486.097-.967.217-1.434.332l-.142.035c-.516.127-1.014.248-1.51.336-.986.175-1.925.216-2.864-.065l-.002-.001c-.177-.052-.413-.22-.75-.509-.06-.05-.122-.106-.187-.162a8.503 8.503 0 00-.868-.693c-.38-.25-.87-.477-1.417-.368-.547.108-.993.52-1.37 1.167-1.606 2.057-4.778 4.16-7.595 5.534h0l-.005.003c-3.792 1.913-9.227 3.32-14.365 3.303-5.152-.017-9.868-1.461-12.408-5.09-1.08-1.572-1.95-4.378-2.12-7.257-.172-2.89.371-5.69 1.934-7.349l.09-.095.031-.127c.45-1.8 1.63-3.243 3.208-4.435 1.58-1.194 3.531-2.113 5.464-2.873h0l.004-.001C18.129 7.59 23.949 6.7 29.833 7.659h.006c.623.094 1.235.277 1.879.47l.096.028c.664.199 1.368.404 2.082.48h.016c.282.021.556.005.802-.014l.179-.014c.18-.015.34-.028.5-.03.402-.008.685.053.932.278l.577.525.236-.744c.204-.644.494-1.099.846-1.437.355-.34.797-.584 1.337-.772.544-.19 1.172-.317 1.89-.432.295-.047.624-.095.968-.145.448-.065.922-.134 1.382-.211h.005c.596-.107 1.216-.22 1.852-.336 4-.732 8.661-1.584 12.445-1.466h.015c.718 0 1.474.135 2.278.28l.095.017c.818.146 1.69.297 2.52.26h0l.012-.002c.586-.041 1.127-.269 1.583-.48l.272-.126c.358-.169.654-.308.941-.38M81.811 22.6L65.46 2.922m8.232-.127h-.002l-.021-.5m.023.5h.002l-.025-.5m.023.5c-.684.035-1.392.057-2.103.079h-.034c-.701.022-1.405.044-2.097.078-1.408.069-2.744.189-3.88.456m8.09-1.112c-.69.035-1.406.057-2.13.079-2.125.065-4.314.132-6.078.547m.118.486l.003-.001-.12-.485m.117.486h-.003l-.115-.486"
          id="path1" stroke="white" />
    <path d="M94.4 3.34c4.73-.14 9.113 1.6 11.478 4.312 1.461 1.74 2.992 4.244 1.739 7.235-2.434 5.982-13.774 4.243-17.739-.209-1.53-1.739-3.408-5.078-2.365-7.93.765-2.157 3.409-3.34 6.887-3.409zm-.626 5.425c-.417 2.157 1.46 4.035 2.713 4.87 1.948 1.252 5.565 1.252 5.983-1.113.556-3.13-3.548-6.33-6.61-5.635-1.043.209-1.947.835-2.086 1.878zm-8.765-1.739c-1.461.14-3.061.209-4.661.348-1.6.139-3.2 0-4.452.556.139.835.417 1.53.974 1.948 2.573 0 4.8-.626 7.443-.348.696.835 1.113 2.018 1.391 3.27-1.878.904-5.495.209-7.582 1.183.07.904.348 1.53.835 2.087 3.2 0 6.121-.905 9.182-.627.835.627 1.322 2.296 1.391 3.34-.904.695-2.504.556-4.104.765-4.174.487-9.043 1.391-13.287 1.6-1.043-.974-1.182-2.574-1.6-3.896-1.252-3.965-2.852-8.209-4.104-12.313 2.017-.765 4.591-.626 7.026-.765 3.34-.209 6.817-.487 10.087-.348.904.557 1.46 2.017 1.46 3.2zm-22.053 7.096c1.74 1.808 3.618 3.339 5.496 5.008.626.487 1.461 1.044 1.53 1.948-1.182.696-2.852.696-4.452.974s-3.408.904-4.521.626c-.835-.139-1.67-1.322-2.365-2.087-2.157-2.295-4.592-4.66-6.4-6.956 1.878-.626 5.008-.278 5.286-2.157.14-.974-.626-2.087-1.739-2.295-1.391-.21-5.148.347-5.426 1.113-.278.834.626 2.365.835 3.339.974 3.617 1.74 6.4 2.365 9.878-.209.835-1.322.765-2.087.835-2.226.348-4.939 1.113-7.374.974-.834-2.783-1.6-5.774-2.295-8.765-.696-2.992-1.392-6.053-1.809-8.974.765-.835 2.365-.766 3.757-.974 3.895-.487 9.043-1.253 12.8-1.53 4.939-.349 8.556.695 9.39 4.034.766 2.644-1.112 4.244-2.99 5.009zM25.46 9.043c5.01-.139 9.6 1.183 12.035 3.757 1.114 1.183 2.435 3.548 2.575 6.47.139 2.226-.487 4.382-1.392 5.843-3.2 5.217-11.965 8.487-19.478 8.765-6.122.279-11.409-1.46-13.426-5.635-2.365-4.939.07-10.573 2.713-13.217 1.739-1.74 4.383-3.13 7.235-4.243 2.852-.974 6.191-1.6 9.739-1.74zm-9.043 9.114c-.695 1.043-1.391 3.06-.835 5.008 1.81 6.261 13.357 4.383 14.192-1.948.556-4.174-2.783-6.747-7.235-6.26-2.574.208-5.009 1.46-6.122 3.2z"
          id="path2" fill="white" />
</svg>
