<svg width="20" height="20" viewBox="0 0 20 20" fill="none" xmlns="http://www.w3.org/2000/svg">
<path id="twitter" fill-rule="evenodd" clip-rule="evenodd" d="M7.68136 15.0794C12.3985 15.0794 14.9782 11.1714 14.9782 7.78263C14.9782 7.67158 14.9759 7.56103 14.9708 7.45108C15.4715 7.08913 15.9068 6.63748 16.2502 6.12323C15.7907 6.32733 15.2962 6.46493 14.7774 6.52693C15.3069 6.20953 15.7134 5.70713 15.9051 5.10833C15.4095 5.40208 14.8609 5.61578 14.2767 5.73078C13.8087 5.23233 13.1423 4.92053 12.4048 4.92053C10.9884 4.92053 9.83976 6.06908 9.83976 7.48493C9.83976 7.68623 9.86231 7.88188 9.90631 8.06968C7.77496 7.96253 5.88491 6.94198 4.62021 5.39023C4.39976 5.76913 4.27286 6.20953 4.27286 6.67918C4.27286 7.56898 4.72566 8.35443 5.41411 8.81393C4.99346 8.80098 4.59821 8.68538 4.25261 8.49308C4.25201 8.50378 4.25201 8.51453 4.25201 8.52578C4.25201 9.76798 5.13616 10.8049 6.30951 11.04C6.09411 11.0986 5.86746 11.1302 5.63346 11.1302C5.46826 11.1302 5.30756 11.1139 5.15136 11.084C5.47781 12.1029 6.42456 12.8443 7.54716 12.8652C6.66926 13.5531 5.56356 13.963 4.36196 13.963C4.15506 13.963 3.95091 13.9512 3.75021 13.9275C4.88521 14.6548 6.23281 15.0794 7.68136 15.0794ZM17.5 20H2.5C1.1193 20 0 18.8807 0 17.5V2.5C0 1.1193 1.1193 0 2.5 0H17.5C18.8807 0 20 1.1193 20 2.5V17.5C20 18.8807 18.8807 20 17.5 20Z" fill="white"/>
</svg>
