<svg width="250" height="49" viewBox="130 0 10 49" xmlns="http://www.w3.org/2000/svg">
<path d="M49.9303 15.3448L49.9316 15.3246C49.9314 15.1285 49.8917 14.9344 49.8149 14.7539C49.7381 14.5734 49.6257 14.4103 49.4845 14.2742C49.4706 14.2605 49.4549 14.2487 49.4406 14.2355C49.4099 14.2083 49.3795 14.1807 49.3464 14.1559C49.3147 14.1318 49.2806 14.1106 49.2466 14.0891C49.2308 14.0792 49.2166 14.0675 49.2003 14.0582L33.3898 4.92984C33.3516 4.90713 33.3126 4.8861 33.2729 4.86676C33.0522 4.76051 32.8083 4.71126 32.5637 4.72352C32.319 4.73577 32.0813 4.80914 31.8723 4.93692L16.0736 14.058C16.0559 14.0682 16.0402 14.0809 16.023 14.0919L15.9863 14.1129L15.9535 14.1384C15.9243 14.1594 15.8963 14.1814 15.8688 14.2044L15.8167 14.2503C15.7799 14.2843 15.7448 14.3201 15.7117 14.3577L15.7073 14.3627C15.4729 14.6285 15.3432 14.9704 15.3423 15.3247L15.3439 15.3477L15.3414 15.3912V33.606C15.3414 33.8706 15.4131 34.1303 15.549 34.3573C15.6849 34.5844 15.8798 34.7703 16.113 34.8953L31.9057 44.0132L31.9447 44.0323C31.9776 44.05 32.0108 44.0665 32.0447 44.0816L32.1115 44.1095C32.1466 44.123 32.1821 44.1347 32.2179 44.1454L32.2837 44.1645C32.3229 44.1743 32.3625 44.1813 32.4022 44.1878L32.4595 44.1976C32.5773 44.2129 32.6966 44.2129 32.8144 44.1976L32.8717 44.1878C32.9114 44.1813 32.9509 44.1742 32.9901 44.1645L33.0561 44.1454C33.0919 44.1347 33.1273 44.123 33.1623 44.1096L33.2291 44.0817C33.263 44.0666 33.2963 44.0501 33.3293 44.0324L33.3681 44.0133L49.1608 34.8954C49.394 34.7704 49.589 34.5845 49.7249 34.3574C49.8607 34.1304 49.9325 33.8707 49.9324 33.6061V15.38L49.9303 15.3448ZM21.5381 14.7289L32.2931 8.51947C32.3977 8.45908 32.5164 8.42729 32.6372 8.42729C32.758 8.42729 32.8766 8.45908 32.9812 8.51947L43.7361 14.7287C43.8407 14.7891 43.9275 14.876 43.9879 14.9806C44.0483 15.0852 44.0801 15.2039 44.0801 15.3246C44.0801 15.4454 44.0483 15.5641 43.9879 15.6687C43.9275 15.7733 43.8407 15.8602 43.7361 15.9206L32.981 22.13C32.8764 22.1904 32.7578 22.2222 32.637 22.2222C32.5162 22.2222 32.3975 22.1904 32.2929 22.13L21.5381 15.9207C21.4336 15.8603 21.3467 15.7734 21.2863 15.6688C21.2259 15.5642 21.1941 15.4456 21.1941 15.3248C21.1941 15.204 21.2259 15.0854 21.2863 14.9808C21.3467 14.8762 21.4336 14.7893 21.5381 14.7289ZM30.7739 38.3307C30.7739 38.4512 30.7422 38.5696 30.6819 38.674C30.6217 38.7783 30.535 38.865 30.4307 38.9252C30.3263 38.9855 30.2079 39.0172 30.0874 39.0172C29.9669 39.0172 29.8485 38.9855 29.7442 38.9252L19.0103 32.728C18.9059 32.6677 18.8192 32.5811 18.759 32.4767C18.6987 32.3723 18.667 32.254 18.667 32.1334V19.74C18.667 19.6195 18.6987 19.5012 18.759 19.3968C18.8193 19.2924 18.9059 19.2058 19.0103 19.1455C19.1146 19.0853 19.233 19.0536 19.3535 19.0536C19.474 19.0536 19.5924 19.0853 19.6968 19.1455L30.4307 25.3428C30.535 25.4031 30.6217 25.4897 30.6819 25.5941C30.7422 25.6985 30.7739 25.8169 30.7739 25.9374V38.3307ZM46.6069 32.1334C46.6069 32.254 46.5752 32.3723 46.5149 32.4767C46.4547 32.5811 46.368 32.6677 46.2637 32.728L35.5298 38.9252C35.4254 38.9855 35.307 39.0172 35.1865 39.0172C35.066 39.0172 34.9476 38.9855 34.8433 38.9252C34.7389 38.865 34.6522 38.7783 34.592 38.674C34.5317 38.5696 34.5 38.4512 34.5 38.3307V25.9374C34.5 25.8169 34.5317 25.6985 34.592 25.5941C34.6522 25.4897 34.7389 25.4031 34.8433 25.3428L45.5772 19.1455C45.6815 19.0853 45.7999 19.0536 45.9204 19.0536C46.0409 19.0536 46.1593 19.0853 46.2637 19.1455C46.368 19.2058 46.4547 19.2924 46.5149 19.3968C46.5752 19.5012 46.6069 19.6195 46.6069 19.74V32.1334Z" fill="#9FEF00"/>
<path d="M74.9669 32.01V26.1908C74.9669 26.0925 74.9278 25.9982 74.8583 25.9287C74.7888 25.8592 74.6945 25.8201 74.5962 25.8201H69.4885C69.3902 25.8201 69.2959 25.8592 69.2264 25.9287C69.1569 25.9982 69.1179 26.0925 69.1179 26.1908V32.01C69.1179 32.1083 69.0788 32.2026 69.0093 32.2721C68.9398 32.3416 68.8455 32.3807 68.7472 32.3807H65.6413C65.543 32.3807 65.4487 32.3416 65.3792 32.2721C65.3097 32.2026 65.2706 32.1083 65.2706 32.01V16.9168C65.2706 16.8185 65.3097 16.7242 65.3792 16.6547C65.4487 16.5852 65.543 16.5461 65.6413 16.5461H68.7473C68.8456 16.5461 68.9399 16.5852 69.0094 16.6547C69.0789 16.7242 69.1179 16.8185 69.1179 16.9168V22.18C69.1179 22.2783 69.157 22.3726 69.2265 22.4421C69.296 22.5116 69.3903 22.5507 69.4886 22.5507H74.5963C74.6946 22.5507 74.7889 22.5116 74.8584 22.4421C74.9279 22.3726 74.9669 22.2783 74.9669 22.18V16.9168C74.9669 16.8185 75.006 16.7242 75.0755 16.6547C75.145 16.5852 75.2393 16.5461 75.3376 16.5461H78.4436C78.5419 16.5461 78.6362 16.5852 78.7057 16.6547C78.7752 16.7242 78.8143 16.8185 78.8143 16.9168V32.01C78.8143 32.1083 78.7752 32.2026 78.7057 32.2721C78.6362 32.3416 78.5419 32.3807 78.4436 32.3807H75.3375C75.2392 32.3807 75.1449 32.3416 75.0754 32.2721C75.0059 32.2026 74.9669 32.1083 74.9669 32.01Z" />
<path d="M87.297 29.2852L86.434 32.118C86.4109 32.194 86.3639 32.2606 86.3001 32.3079C86.2362 32.3552 86.1589 32.3807 86.0794 32.3807H82.8246C82.7657 32.3807 82.7076 32.3666 82.6552 32.3397C82.6027 32.3127 82.5575 32.2736 82.5232 32.2257C82.4889 32.1777 82.4665 32.1223 82.4579 32.064C82.4493 32.0056 82.4548 31.9461 82.4738 31.8903L87.6249 16.7971C87.6499 16.7239 87.6971 16.6603 87.76 16.6153C87.8229 16.5703 87.8983 16.5461 87.9757 16.5461H92.4938C92.5711 16.5461 92.6465 16.5703 92.7094 16.6153C92.7723 16.6603 92.8196 16.7239 92.8446 16.7971L97.9957 31.8903C98.0148 31.9461 98.0202 32.0056 98.0117 32.0639C98.0031 32.1222 97.9807 32.1777 97.9464 32.2256C97.9121 32.2736 97.8669 32.3127 97.8144 32.3396C97.762 32.3666 97.7039 32.3807 97.6449 32.3807H94.3918C94.3119 32.3807 94.2342 32.3549 94.1702 32.3072C94.1062 32.2595 94.0593 32.1924 94.0365 32.1159L93.1937 29.2874C93.1709 29.2109 93.124 29.1438 93.06 29.096C92.996 29.0483 92.9183 29.0226 92.8384 29.0226H87.6515C87.5721 29.0226 87.4947 29.0481 87.4309 29.0954C87.3671 29.1427 87.3201 29.2092 87.297 29.2852ZM91.8471 24.7972C91.2688 22.9065 90.713 20.9496 90.2459 19.0369H90.2014C89.7344 20.9496 89.2007 22.9065 88.6447 24.7972L88.4717 25.3902C88.4556 25.4454 88.4526 25.5037 88.4629 25.5603C88.4732 25.6169 88.4965 25.6704 88.5311 25.7164C88.5656 25.7624 88.6104 25.7998 88.6619 25.8255C88.7133 25.8512 88.7701 25.8646 88.8276 25.8646H91.6766C91.7347 25.8646 91.7921 25.851 91.8439 25.8247C91.8958 25.7985 91.9408 25.7604 91.9752 25.7135C92.0097 25.6667 92.0326 25.6124 92.0422 25.555C92.0518 25.4977 92.0477 25.4389 92.0304 25.3834L91.8471 24.7972Z" />
<path d="M114.401 22.2395H111.139C111.052 22.2393 110.968 22.2085 110.901 22.1523C110.835 22.0962 110.79 22.0185 110.775 21.9327C110.698 21.2394 110.357 20.6024 109.822 20.1543C109.287 19.7061 108.6 19.4813 107.904 19.5264C105.814 19.5264 104.524 21.3946 104.524 24.4635C104.524 27.5324 105.814 29.4006 107.86 29.4006C108.575 29.435 109.277 29.1954 109.822 28.7306C110.367 28.2658 110.714 27.6107 110.793 26.8988C110.809 26.8144 110.854 26.7382 110.92 26.6834C110.986 26.6286 111.07 26.5985 111.156 26.5985H114.454C114.507 26.5987 114.559 26.6101 114.607 26.632C114.655 26.654 114.698 26.6859 114.733 26.7256C114.768 26.7654 114.794 26.8121 114.809 26.8627C114.824 26.9133 114.829 26.9666 114.822 27.019C114.359 30.6912 111.74 32.7366 107.86 32.7366C103.301 32.7366 100.499 29.6008 100.499 24.4635C100.499 19.3263 103.323 16.1904 107.904 16.1904C111.843 16.1904 114.443 18.3749 114.771 21.8309C114.776 21.8825 114.77 21.9346 114.753 21.9839C114.737 22.0332 114.711 22.0785 114.676 22.1169C114.641 22.1554 114.599 22.1861 114.551 22.2073C114.504 22.2284 114.452 22.2394 114.401 22.2395Z" />
<path d="M132.388 32.3807H128.476C128.414 32.3807 128.354 32.3655 128.3 32.3365C128.246 32.3075 128.2 32.2656 128.167 32.2145L123.451 25.086H123.406V32.01C123.406 32.1083 123.367 32.2026 123.297 32.2721C123.228 32.3416 123.134 32.3807 123.035 32.3807H119.929C119.831 32.3807 119.737 32.3416 119.667 32.2721C119.598 32.2026 119.558 32.1083 119.558 32.01V16.9168C119.558 16.8185 119.598 16.7242 119.667 16.6547C119.737 16.5852 119.831 16.5461 119.929 16.5461H123.035C123.134 16.5461 123.228 16.5852 123.297 16.6547C123.367 16.7242 123.406 16.8185 123.406 16.9168V23.3738H123.451L127.988 16.7083C128.022 16.6584 128.068 16.6175 128.121 16.5892C128.174 16.561 128.234 16.5462 128.294 16.5462H131.95C132.019 16.5462 132.087 16.5656 132.146 16.6021C132.204 16.6387 132.252 16.691 132.282 16.7531C132.313 16.8152 132.325 16.8846 132.319 16.9534C132.312 17.0223 132.286 17.0879 132.244 17.1428L127.113 23.8192C127.063 23.8831 127.036 23.9613 127.036 24.0418C127.035 24.1224 127.061 24.2011 127.109 24.2658L132.686 31.7893C132.727 31.8445 132.752 31.9099 132.758 31.9783C132.763 32.0467 132.75 32.1154 132.719 32.1767C132.688 32.2381 132.641 32.2896 132.583 32.3256C132.524 32.3616 132.457 32.3807 132.388 32.3807Z" />
<path d="M143.133 18.7405V32.01C143.133 32.1083 143.094 32.2026 143.024 32.2721C142.955 32.3416 142.86 32.3807 142.762 32.3807H141.435C141.337 32.3807 141.242 32.3416 141.173 32.2721C141.103 32.2026 141.064 32.1083 141.064 32.01V18.7405C141.064 18.6422 141.025 18.5479 140.956 18.4784C140.886 18.4089 140.792 18.3698 140.694 18.3698H136.031C135.933 18.3698 135.838 18.3308 135.769 18.2612C135.699 18.1917 135.66 18.0974 135.66 17.9991V16.9168C135.66 16.8185 135.699 16.7242 135.769 16.6547C135.838 16.5852 135.933 16.5461 136.031 16.5461H148.166C148.264 16.5461 148.359 16.5852 148.428 16.6547C148.498 16.7242 148.537 16.8185 148.537 16.9168V17.9991C148.537 18.0974 148.498 18.1917 148.428 18.2612C148.359 18.3307 148.264 18.3698 148.166 18.3698H143.503C143.405 18.3698 143.311 18.4089 143.241 18.4784C143.172 18.5479 143.133 18.6422 143.133 18.7405Z" />
<path d="M162.793 32.01V25.4346C162.793 25.3363 162.753 25.242 162.684 25.1725C162.614 25.103 162.52 25.0639 162.422 25.0639H155.09C154.992 25.0639 154.898 25.103 154.828 25.1725C154.759 25.242 154.72 25.3363 154.72 25.4346V32.01C154.72 32.1083 154.681 32.2026 154.611 32.2721C154.542 32.3416 154.447 32.3807 154.349 32.3807H153.044C152.946 32.3807 152.852 32.3416 152.782 32.2721C152.713 32.2026 152.674 32.1083 152.674 32.01V16.9168C152.674 16.8185 152.713 16.7242 152.782 16.6547C152.852 16.5852 152.946 16.5461 153.044 16.5461H154.349C154.447 16.5461 154.542 16.5852 154.611 16.6547C154.681 16.7242 154.72 16.8185 154.72 16.9168V22.8917C154.72 22.99 154.759 23.0843 154.828 23.1538C154.898 23.2233 154.992 23.2623 155.09 23.2623H162.422C162.52 23.2623 162.614 23.2233 162.684 23.1538C162.753 23.0843 162.793 22.99 162.793 22.8917V16.9168C162.793 16.8185 162.832 16.7242 162.901 16.6547C162.971 16.5852 163.065 16.5461 163.163 16.5461H164.49C164.589 16.5461 164.683 16.5852 164.752 16.6547C164.822 16.7242 164.861 16.8185 164.861 16.9168V32.01C164.861 32.1083 164.822 32.2026 164.752 32.2721C164.683 32.3416 164.589 32.3807 164.49 32.3807H163.163C163.065 32.3806 162.971 32.3416 162.901 32.2721C162.832 32.2026 162.793 32.1083 162.793 32.01Z"/>
<path d="M173.335 18.7405V23.0032C173.335 23.1015 173.374 23.1958 173.443 23.2653C173.513 23.3348 173.607 23.3738 173.706 23.3738H180.659C180.757 23.3738 180.851 23.4129 180.921 23.4824C180.991 23.5519 181.03 23.6462 181.03 23.7445V24.8044C181.03 24.9027 180.99 24.997 180.921 25.0665C180.851 25.136 180.757 25.175 180.659 25.175H173.706C173.607 25.175 173.513 25.2141 173.443 25.2836C173.374 25.3531 173.335 25.4474 173.335 25.5457V30.1864C173.335 30.2847 173.374 30.3789 173.443 30.4485C173.513 30.518 173.607 30.557 173.706 30.557H181.371C181.469 30.557 181.563 30.5961 181.633 30.6656C181.702 30.7351 181.741 30.8294 181.741 30.9277V32.01C181.741 32.1083 181.702 32.2026 181.633 32.2721C181.563 32.3416 181.469 32.3807 181.371 32.3807H171.659C171.561 32.3807 171.467 32.3416 171.397 32.2721C171.328 32.2026 171.289 32.1083 171.289 32.01V16.9168C171.289 16.8185 171.328 16.7242 171.397 16.6547C171.467 16.5852 171.561 16.5461 171.659 16.5461H181.126C181.224 16.5461 181.319 16.5852 181.388 16.6547C181.458 16.7242 181.497 16.8185 181.497 16.9168V17.9991C181.497 18.0974 181.458 18.1917 181.388 18.2612C181.319 18.3308 181.224 18.3698 181.126 18.3698H173.706C173.607 18.3698 173.513 18.4089 173.443 18.4784C173.374 18.5479 173.335 18.6422 173.335 18.7405Z" />
<path d="M193.017 16.5461C196.953 16.5461 198.777 18.1921 198.777 20.6159C198.824 21.4396 198.58 22.2535 198.088 22.916C197.596 23.5784 196.888 24.0474 196.086 24.2411V24.2853C196.977 24.3852 197.795 24.8245 198.371 25.512C198.947 26.1995 199.236 27.0824 199.177 27.9772C199.177 30.6681 197.042 32.3807 193.395 32.3807H187.205C187.107 32.3807 187.013 32.3416 186.943 32.2721C186.874 32.2026 186.834 32.1083 186.834 32.01V16.9168C186.834 16.8185 186.874 16.7242 186.943 16.6547C187.013 16.5852 187.107 16.5461 187.205 16.5461H193.017ZM190.615 22.5804C190.615 22.6787 190.654 22.773 190.724 22.8425C190.793 22.912 190.888 22.951 190.986 22.951H192.617C194.329 22.951 195.063 22.395 195.063 21.2164C195.063 20.0378 194.351 19.5263 192.75 19.5263H190.986C190.887 19.5263 190.793 19.5654 190.724 19.6349C190.654 19.7044 190.615 19.7987 190.615 19.897L190.615 22.5804ZM190.615 29.0077C190.615 29.106 190.654 29.2003 190.724 29.2698C190.793 29.3393 190.888 29.3784 190.986 29.3784H192.706C194.507 29.3784 195.219 28.8224 195.219 27.6213C195.219 26.3537 194.485 25.7756 192.639 25.7756H190.986C190.888 25.7756 190.793 25.8146 190.724 25.8842C190.654 25.9537 190.615 26.0479 190.615 26.1462V29.0077Z" />
<path d="M218.148 24.4635C218.148 29.5562 215.212 32.7366 210.498 32.7366C205.761 32.7366 202.825 29.5562 202.825 24.4635C202.825 19.3708 205.761 16.1904 210.498 16.1904C215.212 16.1904 218.148 19.3708 218.148 24.4635ZM206.85 24.4635C206.85 27.5769 208.185 29.4006 210.498 29.4006C212.788 29.4006 214.123 27.5769 214.123 24.4635C214.123 21.3501 212.788 19.5265 210.498 19.5265C208.185 19.5265 206.85 21.3501 206.85 24.4635Z" />
<path d="M234.302 32.3806H230.65C230.582 32.3806 230.515 32.362 230.457 32.3268C230.399 32.2916 230.352 32.2412 230.321 32.181L227.578 26.9097H227.534L224.769 32.1821C224.737 32.242 224.69 32.2922 224.632 32.3272C224.575 32.3622 224.508 32.3807 224.441 32.3807H220.808C220.742 32.3807 220.678 32.3632 220.621 32.33C220.564 32.2969 220.517 32.2492 220.485 32.192C220.453 32.1347 220.436 32.0699 220.437 32.0042C220.438 31.9385 220.457 31.8742 220.491 31.818L224.949 24.4547C224.984 24.3969 225.003 24.3307 225.003 24.2632C225.003 24.1956 224.984 24.1293 224.95 24.0715L220.756 17.1081C220.722 17.0518 220.703 16.9876 220.702 16.9219C220.702 16.8563 220.718 16.7916 220.75 16.7344C220.783 16.6773 220.83 16.6297 220.886 16.5967C220.943 16.5636 221.007 16.5461 221.073 16.5461H224.615C224.684 16.5461 224.751 16.5651 224.809 16.6008C224.867 16.6366 224.915 16.6878 224.946 16.7488L227.534 21.8391H227.578L230.144 16.7499C230.175 16.6887 230.222 16.6372 230.281 16.6012C230.339 16.5652 230.406 16.5462 230.475 16.5462H234.016C234.082 16.5462 234.147 16.5636 234.203 16.5967C234.26 16.6298 234.307 16.6773 234.339 16.7345C234.371 16.7916 234.388 16.8563 234.387 16.922C234.386 16.9876 234.368 17.0518 234.334 17.1081L230.14 24.0711C230.105 24.129 230.087 24.1954 230.087 24.2631C230.087 24.3308 230.106 24.3971 230.141 24.4549L234.619 31.8174C234.653 31.8736 234.672 31.9379 234.673 32.0036C234.674 32.0694 234.658 32.1343 234.625 32.1916C234.593 32.249 234.546 32.2967 234.489 32.3299C234.433 32.3631 234.368 32.3806 234.302 32.3806Z"/>
</svg>
